<mxfile host="app.diagrams.net" modified="2023-03-12T00:11:16.223Z" agent="5.0 (X11; Linux x86_64) AppleWebKit/537.36 (KHTML, like Gecko) Chrome/110.0.0.0 Safari/537.36" etag="evQUnxxHcXvhHmWy7QmB" version="21.0.6" type="github">
  <diagram id="C5RBs43oDa-KdzZeNtuy" name="Page-1">
    <mxGraphModel dx="2260" dy="1971" grid="1" gridSize="10" guides="1" tooltips="1" connect="1" arrows="1" fold="1" page="1" pageScale="1" pageWidth="827" pageHeight="1169" math="0" shadow="0">
      <root>
        <mxCell id="WIyWlLk6GJQsqaUBKTNV-0" />
        <mxCell id="WIyWlLk6GJQsqaUBKTNV-1" parent="WIyWlLk6GJQsqaUBKTNV-0" />
        <mxCell id="WIyWlLk6GJQsqaUBKTNV-3" value="server agets a packet" style="rounded=1;whiteSpace=wrap;html=1;fontSize=12;glass=0;strokeWidth=1;shadow=0;" parent="WIyWlLk6GJQsqaUBKTNV-1" vertex="1">
          <mxGeometry x="675" y="10" width="120" height="40" as="geometry" />
        </mxCell>
        <mxCell id="WIyWlLk6GJQsqaUBKTNV-5" value="No" style="edgeStyle=orthogonalEdgeStyle;rounded=0;html=1;jettySize=auto;orthogonalLoop=1;fontSize=11;endArrow=block;endFill=0;endSize=8;strokeWidth=1;shadow=0;labelBackgroundColor=none;exitX=0.5;exitY=1;exitDx=0;exitDy=0;entryX=0.5;entryY=0;entryDx=0;entryDy=0;" parent="WIyWlLk6GJQsqaUBKTNV-1" source="WIyWlLk6GJQsqaUBKTNV-7" target="fX1Ia65fQYnZh4xE99EQ-3" edge="1">
          <mxGeometry x="-0.543" y="15" relative="1" as="geometry">
            <mxPoint as="offset" />
            <mxPoint x="345" y="234" as="sourcePoint" />
            <mxPoint x="342" y="260" as="targetPoint" />
            <Array as="points">
              <mxPoint x="735" y="135" />
              <mxPoint x="1138" y="135" />
            </Array>
          </mxGeometry>
        </mxCell>
        <mxCell id="0BvVbnJKyEt2qMHATExJ-121" value="Yes" style="edgeStyle=orthogonalEdgeStyle;shape=connector;rounded=0;orthogonalLoop=1;jettySize=auto;html=1;exitX=0;exitY=0.5;exitDx=0;exitDy=0;entryX=0.5;entryY=0;entryDx=0;entryDy=0;shadow=0;labelBackgroundColor=none;strokeColor=default;strokeWidth=1;fontFamily=Helvetica;fontSize=11;fontColor=default;endArrow=block;endFill=0;endSize=8;" edge="1" parent="WIyWlLk6GJQsqaUBKTNV-1" source="WIyWlLk6GJQsqaUBKTNV-7" target="fX1Ia65fQYnZh4xE99EQ-2">
          <mxGeometry x="-0.8082" y="-15" relative="1" as="geometry">
            <mxPoint as="offset" />
          </mxGeometry>
        </mxCell>
        <mxCell id="WIyWlLk6GJQsqaUBKTNV-7" value="is request packet?" style="rounded=1;whiteSpace=wrap;html=1;fontSize=12;glass=0;strokeWidth=1;shadow=0;" parent="WIyWlLk6GJQsqaUBKTNV-1" vertex="1">
          <mxGeometry x="667.5" y="120" width="135" height="30" as="geometry" />
        </mxCell>
        <mxCell id="WIyWlLk6GJQsqaUBKTNV-8" value="No" style="rounded=0;html=1;jettySize=auto;orthogonalLoop=1;fontSize=11;endArrow=block;endFill=0;endSize=8;strokeWidth=1;shadow=0;labelBackgroundColor=none;edgeStyle=orthogonalEdgeStyle;" parent="WIyWlLk6GJQsqaUBKTNV-1" edge="1">
          <mxGeometry x="0.3333" y="20" relative="1" as="geometry">
            <mxPoint as="offset" />
            <mxPoint x="238.0666666666666" y="489.9466666666667" as="sourcePoint" />
          </mxGeometry>
        </mxCell>
        <mxCell id="fX1Ia65fQYnZh4xE99EQ-1" value="" style="rounded=0;html=1;jettySize=auto;orthogonalLoop=1;fontSize=11;endArrow=block;endFill=0;endSize=8;strokeWidth=1;shadow=0;labelBackgroundColor=none;edgeStyle=orthogonalEdgeStyle;exitX=0.5;exitY=1;exitDx=0;exitDy=0;entryX=0.5;entryY=0;entryDx=0;entryDy=0;" parent="WIyWlLk6GJQsqaUBKTNV-1" edge="1" target="WIyWlLk6GJQsqaUBKTNV-7" source="WIyWlLk6GJQsqaUBKTNV-3">
          <mxGeometry relative="1" as="geometry">
            <mxPoint x="315.5" y="144" as="sourcePoint" />
            <mxPoint x="315.5" y="194" as="targetPoint" />
          </mxGeometry>
        </mxCell>
        <mxCell id="fX1Ia65fQYnZh4xE99EQ-2" value="is anonymos?" style="rounded=1;whiteSpace=wrap;html=1;fontSize=12;glass=0;strokeWidth=1;shadow=0;" parent="WIyWlLk6GJQsqaUBKTNV-1" vertex="1">
          <mxGeometry x="259" y="185" width="135" height="30" as="geometry" />
        </mxCell>
        <mxCell id="fX1Ia65fQYnZh4xE99EQ-3" value="is matching handler exists?" style="rounded=1;whiteSpace=wrap;html=1;fontSize=12;glass=0;strokeWidth=1;shadow=0;" parent="WIyWlLk6GJQsqaUBKTNV-1" vertex="1">
          <mxGeometry x="1070" y="185" width="135" height="30" as="geometry" />
        </mxCell>
        <mxCell id="fX1Ia65fQYnZh4xE99EQ-5" value="Yes" style="rounded=0;html=1;jettySize=auto;orthogonalLoop=1;fontSize=11;endArrow=block;endFill=0;endSize=8;strokeWidth=1;shadow=0;labelBackgroundColor=none;edgeStyle=orthogonalEdgeStyle;exitX=1;exitY=0.5;exitDx=0;exitDy=0;entryX=0.5;entryY=0;entryDx=0;entryDy=0;" parent="WIyWlLk6GJQsqaUBKTNV-1" edge="1" target="fX1Ia65fQYnZh4xE99EQ-25" source="fX1Ia65fQYnZh4xE99EQ-2">
          <mxGeometry x="-0.5328" y="9" relative="1" as="geometry">
            <mxPoint as="offset" />
            <mxPoint x="365.5" y="216" as="sourcePoint" />
            <mxPoint x="365.5" y="256" as="targetPoint" />
          </mxGeometry>
        </mxCell>
        <mxCell id="fX1Ia65fQYnZh4xE99EQ-10" value="user exist?" style="rounded=1;whiteSpace=wrap;html=1;fontSize=12;glass=0;strokeWidth=1;shadow=0;" parent="WIyWlLk6GJQsqaUBKTNV-1" vertex="1">
          <mxGeometry x="176" y="231" width="80" height="30" as="geometry" />
        </mxCell>
        <mxCell id="fX1Ia65fQYnZh4xE99EQ-11" value="No" style="edgeStyle=orthogonalEdgeStyle;rounded=0;html=1;jettySize=auto;orthogonalLoop=1;fontSize=11;endArrow=block;endFill=0;endSize=8;strokeWidth=1;shadow=0;labelBackgroundColor=none;exitX=0;exitY=0.5;exitDx=0;exitDy=0;entryX=0.5;entryY=0;entryDx=0;entryDy=0;" parent="WIyWlLk6GJQsqaUBKTNV-1" edge="1" target="fX1Ia65fQYnZh4xE99EQ-10" source="fX1Ia65fQYnZh4xE99EQ-2">
          <mxGeometry x="-0.5233" y="-9" relative="1" as="geometry">
            <mxPoint as="offset" />
            <mxPoint x="271.25" y="216" as="sourcePoint" />
            <mxPoint x="271" y="252" as="targetPoint" />
          </mxGeometry>
        </mxCell>
        <mxCell id="fX1Ia65fQYnZh4xE99EQ-14" value="No" style="edgeStyle=orthogonalEdgeStyle;rounded=0;html=1;jettySize=auto;orthogonalLoop=1;fontSize=11;endArrow=block;endFill=0;endSize=8;strokeWidth=1;shadow=0;labelBackgroundColor=none;exitX=1;exitY=0.5;exitDx=0;exitDy=0;entryX=0.5;entryY=0;entryDx=0;entryDy=0;" parent="WIyWlLk6GJQsqaUBKTNV-1" edge="1" target="fX1Ia65fQYnZh4xE99EQ-15" source="fX1Ia65fQYnZh4xE99EQ-10">
          <mxGeometry x="-0.2" y="5" relative="1" as="geometry">
            <mxPoint as="offset" />
            <mxPoint x="260.25" y="261" as="sourcePoint" />
            <mxPoint x="260" y="297" as="targetPoint" />
          </mxGeometry>
        </mxCell>
        <mxCell id="fX1Ia65fQYnZh4xE99EQ-15" value="creates it" style="rounded=1;whiteSpace=wrap;html=1;fontSize=12;glass=0;strokeWidth=1;shadow=0;" parent="WIyWlLk6GJQsqaUBKTNV-1" vertex="1">
          <mxGeometry x="236" y="271" width="90" height="30" as="geometry" />
        </mxCell>
        <mxCell id="fX1Ia65fQYnZh4xE99EQ-17" value="Yes" style="rounded=0;html=1;jettySize=auto;orthogonalLoop=1;fontSize=11;endArrow=block;endFill=0;endSize=8;strokeWidth=1;shadow=0;labelBackgroundColor=none;edgeStyle=orthogonalEdgeStyle;entryX=0.5;entryY=0;entryDx=0;entryDy=0;exitX=0;exitY=0.5;exitDx=0;exitDy=0;" parent="WIyWlLk6GJQsqaUBKTNV-1" edge="1" target="fX1Ia65fQYnZh4xE99EQ-18" source="fX1Ia65fQYnZh4xE99EQ-10">
          <mxGeometry x="-0.5" y="-15" relative="1" as="geometry">
            <mxPoint as="offset" />
            <mxPoint x="175.5" y="261" as="sourcePoint" />
            <mxPoint x="175.5" y="301" as="targetPoint" />
          </mxGeometry>
        </mxCell>
        <mxCell id="fX1Ia65fQYnZh4xE99EQ-18" value="authentication secseed?" style="rounded=1;whiteSpace=wrap;html=1;fontSize=12;glass=0;strokeWidth=1;shadow=0;" parent="WIyWlLk6GJQsqaUBKTNV-1" vertex="1">
          <mxGeometry x="106" y="301" width="90" height="30" as="geometry" />
        </mxCell>
        <mxCell id="fX1Ia65fQYnZh4xE99EQ-19" value="No" style="edgeStyle=orthogonalEdgeStyle;rounded=0;html=1;jettySize=auto;orthogonalLoop=1;fontSize=11;endArrow=block;endFill=0;endSize=8;strokeWidth=1;shadow=0;labelBackgroundColor=none;exitX=0;exitY=0.5;exitDx=0;exitDy=0;entryX=0.5;entryY=0;entryDx=0;entryDy=0;" parent="WIyWlLk6GJQsqaUBKTNV-1" edge="1" target="fX1Ia65fQYnZh4xE99EQ-20" source="fX1Ia65fQYnZh4xE99EQ-18">
          <mxGeometry x="-0.5" y="-5" relative="1" as="geometry">
            <mxPoint as="offset" />
            <mxPoint x="135.25" y="333.0000000000001" as="sourcePoint" />
            <mxPoint x="135" y="369" as="targetPoint" />
          </mxGeometry>
        </mxCell>
        <mxCell id="fX1Ia65fQYnZh4xE99EQ-20" value="sends ERROR&lt;br&gt;response" style="rounded=1;whiteSpace=wrap;html=1;fontSize=12;glass=0;strokeWidth=1;shadow=0;" parent="WIyWlLk6GJQsqaUBKTNV-1" vertex="1">
          <mxGeometry x="36" y="351" width="90" height="30" as="geometry" />
        </mxCell>
        <mxCell id="fX1Ia65fQYnZh4xE99EQ-27" style="edgeStyle=orthogonalEdgeStyle;rounded=0;orthogonalLoop=1;jettySize=auto;html=1;labelBackgroundColor=none;endArrow=block;endFill=0;endSize=8;strokeWidth=1;shadow=0;entryX=0.5;entryY=0;entryDx=0;entryDy=0;" parent="WIyWlLk6GJQsqaUBKTNV-1" source="fX1Ia65fQYnZh4xE99EQ-23" target="fX1Ia65fQYnZh4xE99EQ-26" edge="1">
          <mxGeometry relative="1" as="geometry">
            <mxPoint x="266.0000000000002" y="501.0000000000001" as="targetPoint" />
          </mxGeometry>
        </mxCell>
        <mxCell id="fX1Ia65fQYnZh4xE99EQ-25" value="set public srtorage path" style="rounded=1;whiteSpace=wrap;html=1;fontSize=12;glass=0;strokeWidth=1;shadow=0;" parent="WIyWlLk6GJQsqaUBKTNV-1" vertex="1">
          <mxGeometry x="374" y="231" width="90" height="30" as="geometry" />
        </mxCell>
        <mxCell id="fX1Ia65fQYnZh4xE99EQ-26" value="check sub-type of the request" style="rounded=1;whiteSpace=wrap;html=1;fontSize=12;glass=0;strokeWidth=1;shadow=0;" parent="WIyWlLk6GJQsqaUBKTNV-1" vertex="1">
          <mxGeometry x="355" y="392" width="128" height="60" as="geometry" />
        </mxCell>
        <mxCell id="fX1Ia65fQYnZh4xE99EQ-29" value="upload" style="rounded=1;whiteSpace=wrap;html=1;fontSize=12;glass=0;strokeWidth=1;shadow=0;" parent="WIyWlLk6GJQsqaUBKTNV-1" vertex="1">
          <mxGeometry x="-60" y="511" width="90" height="30" as="geometry" />
        </mxCell>
        <mxCell id="0BvVbnJKyEt2qMHATExJ-45" value="No" style="edgeStyle=orthogonalEdgeStyle;shape=connector;rounded=0;orthogonalLoop=1;jettySize=auto;html=1;entryX=0.5;entryY=0;entryDx=0;entryDy=0;shadow=0;labelBackgroundColor=none;strokeColor=default;strokeWidth=1;fontFamily=Helvetica;fontSize=11;fontColor=default;endArrow=block;endFill=0;endSize=8;" edge="1" parent="WIyWlLk6GJQsqaUBKTNV-1" source="fX1Ia65fQYnZh4xE99EQ-31" target="fX1Ia65fQYnZh4xE99EQ-38">
          <mxGeometry x="-0.5556" y="15" relative="1" as="geometry">
            <mxPoint as="offset" />
          </mxGeometry>
        </mxCell>
        <mxCell id="0BvVbnJKyEt2qMHATExJ-56" value="Yes" style="edgeStyle=orthogonalEdgeStyle;shape=connector;rounded=0;orthogonalLoop=1;jettySize=auto;html=1;entryX=0.5;entryY=0;entryDx=0;entryDy=0;shadow=0;labelBackgroundColor=none;strokeColor=default;strokeWidth=1;fontFamily=Helvetica;fontSize=11;fontColor=default;endArrow=block;endFill=0;endSize=8;" edge="1" parent="WIyWlLk6GJQsqaUBKTNV-1" source="fX1Ia65fQYnZh4xE99EQ-31" target="fX1Ia65fQYnZh4xE99EQ-82">
          <mxGeometry x="0.1321" y="15" relative="1" as="geometry">
            <mxPoint as="offset" />
          </mxGeometry>
        </mxCell>
        <mxCell id="fX1Ia65fQYnZh4xE99EQ-31" value="path is legal?" style="rounded=1;whiteSpace=wrap;html=1;fontSize=12;glass=0;strokeWidth=1;shadow=0;" parent="WIyWlLk6GJQsqaUBKTNV-1" vertex="1">
          <mxGeometry x="-60" y="561" width="90" height="30" as="geometry" />
        </mxCell>
        <mxCell id="fX1Ia65fQYnZh4xE99EQ-38" value="sends ERROR&lt;br&gt;response" style="rounded=1;whiteSpace=wrap;html=1;fontSize=12;glass=0;strokeWidth=1;shadow=0;" parent="WIyWlLk6GJQsqaUBKTNV-1" vertex="1">
          <mxGeometry x="31" y="601" width="90" height="30" as="geometry" />
        </mxCell>
        <mxCell id="0BvVbnJKyEt2qMHATExJ-60" style="edgeStyle=orthogonalEdgeStyle;shape=connector;rounded=0;orthogonalLoop=1;jettySize=auto;html=1;entryX=0.5;entryY=0;entryDx=0;entryDy=0;shadow=0;labelBackgroundColor=none;strokeColor=default;strokeWidth=1;fontFamily=Helvetica;fontSize=11;fontColor=default;endArrow=block;endFill=0;endSize=8;" edge="1" parent="WIyWlLk6GJQsqaUBKTNV-1" source="fX1Ia65fQYnZh4xE99EQ-41" target="fX1Ia65fQYnZh4xE99EQ-43">
          <mxGeometry relative="1" as="geometry" />
        </mxCell>
        <mxCell id="fX1Ia65fQYnZh4xE99EQ-41" value="create UploadResponse packet" style="rounded=1;whiteSpace=wrap;html=1;fontSize=12;glass=0;strokeWidth=1;shadow=0;" parent="WIyWlLk6GJQsqaUBKTNV-1" vertex="1">
          <mxGeometry x="-65" y="707" width="100" height="50" as="geometry" />
        </mxCell>
        <mxCell id="0BvVbnJKyEt2qMHATExJ-157" value="Yes" style="edgeStyle=orthogonalEdgeStyle;shape=connector;rounded=0;orthogonalLoop=1;jettySize=auto;html=1;exitX=1;exitY=0.5;exitDx=0;exitDy=0;entryX=0;entryY=0.5;entryDx=0;entryDy=0;shadow=0;labelBackgroundColor=none;strokeColor=default;strokeWidth=1;fontFamily=Helvetica;fontSize=11;fontColor=default;endArrow=block;endFill=0;endSize=8;" edge="1" parent="WIyWlLk6GJQsqaUBKTNV-1" source="fX1Ia65fQYnZh4xE99EQ-43" target="fX1Ia65fQYnZh4xE99EQ-201">
          <mxGeometry x="-0.9349" y="21" relative="1" as="geometry">
            <Array as="points">
              <mxPoint x="80" y="811" />
              <mxPoint x="80" y="927" />
            </Array>
            <mxPoint as="offset" />
          </mxGeometry>
        </mxCell>
        <mxCell id="fX1Ia65fQYnZh4xE99EQ-43" value="file size is 0?" style="rounded=1;whiteSpace=wrap;html=1;fontSize=12;glass=0;strokeWidth=1;shadow=0;" parent="WIyWlLk6GJQsqaUBKTNV-1" vertex="1">
          <mxGeometry x="-65" y="786" width="100" height="50" as="geometry" />
        </mxCell>
        <mxCell id="0BvVbnJKyEt2qMHATExJ-67" style="edgeStyle=orthogonalEdgeStyle;shape=connector;rounded=0;orthogonalLoop=1;jettySize=auto;html=1;entryX=0.5;entryY=0;entryDx=0;entryDy=0;shadow=0;labelBackgroundColor=none;strokeColor=default;strokeWidth=1;fontFamily=Helvetica;fontSize=11;fontColor=default;endArrow=block;endFill=0;endSize=8;" edge="1" parent="WIyWlLk6GJQsqaUBKTNV-1" source="fX1Ia65fQYnZh4xE99EQ-46" target="fX1Ia65fQYnZh4xE99EQ-51">
          <mxGeometry relative="1" as="geometry" />
        </mxCell>
        <mxCell id="fX1Ia65fQYnZh4xE99EQ-46" value="set single segments size&lt;br&gt;closest to cliens request" style="rounded=1;whiteSpace=wrap;html=1;fontSize=12;glass=0;strokeWidth=1;shadow=0;" parent="WIyWlLk6GJQsqaUBKTNV-1" vertex="1">
          <mxGeometry x="-70" y="881" width="110" height="60" as="geometry" />
        </mxCell>
        <mxCell id="0BvVbnJKyEt2qMHATExJ-68" style="edgeStyle=orthogonalEdgeStyle;shape=connector;rounded=0;orthogonalLoop=1;jettySize=auto;html=1;entryX=0.5;entryY=0;entryDx=0;entryDy=0;shadow=0;labelBackgroundColor=none;strokeColor=default;strokeWidth=1;fontFamily=Helvetica;fontSize=11;fontColor=default;endArrow=block;endFill=0;endSize=8;" edge="1" parent="WIyWlLk6GJQsqaUBKTNV-1" source="fX1Ia65fQYnZh4xE99EQ-51" target="fX1Ia65fQYnZh4xE99EQ-52">
          <mxGeometry relative="1" as="geometry" />
        </mxCell>
        <mxCell id="fX1Ia65fQYnZh4xE99EQ-51" value="set segment amount" style="rounded=1;whiteSpace=wrap;html=1;fontSize=12;glass=0;strokeWidth=1;shadow=0;" parent="WIyWlLk6GJQsqaUBKTNV-1" vertex="1">
          <mxGeometry x="-65" y="973" width="100" height="50" as="geometry" />
        </mxCell>
        <mxCell id="0BvVbnJKyEt2qMHATExJ-69" style="edgeStyle=orthogonalEdgeStyle;shape=connector;rounded=0;orthogonalLoop=1;jettySize=auto;html=1;entryX=0.5;entryY=0;entryDx=0;entryDy=0;shadow=0;labelBackgroundColor=none;strokeColor=default;strokeWidth=1;fontFamily=Helvetica;fontSize=11;fontColor=default;endArrow=block;endFill=0;endSize=8;" edge="1" parent="WIyWlLk6GJQsqaUBKTNV-1" source="fX1Ia65fQYnZh4xE99EQ-52" target="fX1Ia65fQYnZh4xE99EQ-53">
          <mxGeometry relative="1" as="geometry" />
        </mxCell>
        <mxCell id="fX1Ia65fQYnZh4xE99EQ-52" value="send response to the client" style="rounded=1;whiteSpace=wrap;html=1;fontSize=12;glass=0;strokeWidth=1;shadow=0;" parent="WIyWlLk6GJQsqaUBKTNV-1" vertex="1">
          <mxGeometry x="-65" y="1056" width="100" height="50" as="geometry" />
        </mxCell>
        <mxCell id="fX1Ia65fQYnZh4xE99EQ-53" value="save the handler" style="rounded=1;whiteSpace=wrap;html=1;fontSize=12;glass=0;strokeWidth=1;shadow=0;" parent="WIyWlLk6GJQsqaUBKTNV-1" vertex="1">
          <mxGeometry x="-65" y="1145" width="100" height="50" as="geometry" />
        </mxCell>
        <mxCell id="0BvVbnJKyEt2qMHATExJ-72" style="edgeStyle=orthogonalEdgeStyle;shape=connector;rounded=0;orthogonalLoop=1;jettySize=auto;html=1;exitX=0.5;exitY=1;exitDx=0;exitDy=0;entryX=0.5;entryY=0;entryDx=0;entryDy=0;shadow=0;labelBackgroundColor=none;strokeColor=default;strokeWidth=1;fontFamily=Helvetica;fontSize=11;fontColor=default;endArrow=block;endFill=0;endSize=8;" edge="1" parent="WIyWlLk6GJQsqaUBKTNV-1" source="fX1Ia65fQYnZh4xE99EQ-57" target="fX1Ia65fQYnZh4xE99EQ-58">
          <mxGeometry relative="1" as="geometry" />
        </mxCell>
        <mxCell id="fX1Ia65fQYnZh4xE99EQ-57" value="download" style="rounded=1;whiteSpace=wrap;html=1;fontSize=12;glass=0;strokeWidth=1;shadow=0;" parent="WIyWlLk6GJQsqaUBKTNV-1" vertex="1">
          <mxGeometry x="210" y="511" width="90" height="30" as="geometry" />
        </mxCell>
        <mxCell id="0BvVbnJKyEt2qMHATExJ-76" value="Yes" style="edgeStyle=orthogonalEdgeStyle;shape=connector;rounded=0;orthogonalLoop=1;jettySize=auto;html=1;shadow=0;labelBackgroundColor=none;strokeColor=default;strokeWidth=1;fontFamily=Helvetica;fontSize=11;fontColor=default;endArrow=block;endFill=0;endSize=8;" edge="1" parent="WIyWlLk6GJQsqaUBKTNV-1" source="fX1Ia65fQYnZh4xE99EQ-58" target="fX1Ia65fQYnZh4xE99EQ-62">
          <mxGeometry x="0.0714" y="15" relative="1" as="geometry">
            <mxPoint as="offset" />
          </mxGeometry>
        </mxCell>
        <mxCell id="fX1Ia65fQYnZh4xE99EQ-58" value="is&amp;nbsp; exist?" style="rounded=1;whiteSpace=wrap;html=1;fontSize=12;glass=0;strokeWidth=1;shadow=0;" parent="WIyWlLk6GJQsqaUBKTNV-1" vertex="1">
          <mxGeometry x="210" y="561" width="90" height="30" as="geometry" />
        </mxCell>
        <mxCell id="fX1Ia65fQYnZh4xE99EQ-60" value="sends ERROR&lt;br&gt;response" style="rounded=1;whiteSpace=wrap;html=1;fontSize=12;glass=0;strokeWidth=1;shadow=0;" parent="WIyWlLk6GJQsqaUBKTNV-1" vertex="1">
          <mxGeometry x="138" y="602" width="90" height="30" as="geometry" />
        </mxCell>
        <mxCell id="0BvVbnJKyEt2qMHATExJ-77" value="Yes" style="edgeStyle=orthogonalEdgeStyle;shape=connector;rounded=0;orthogonalLoop=1;jettySize=auto;html=1;exitX=0;exitY=0.5;exitDx=0;exitDy=0;entryX=0.5;entryY=0;entryDx=0;entryDy=0;shadow=0;labelBackgroundColor=none;strokeColor=default;strokeWidth=1;fontFamily=Helvetica;fontSize=11;fontColor=default;endArrow=block;endFill=0;endSize=8;" edge="1" parent="WIyWlLk6GJQsqaUBKTNV-1" source="fX1Ia65fQYnZh4xE99EQ-62" target="fX1Ia65fQYnZh4xE99EQ-65">
          <mxGeometry x="-0.3714" y="-18" relative="1" as="geometry">
            <mxPoint as="offset" />
          </mxGeometry>
        </mxCell>
        <mxCell id="0BvVbnJKyEt2qMHATExJ-78" value="No" style="edgeStyle=orthogonalEdgeStyle;shape=connector;rounded=0;orthogonalLoop=1;jettySize=auto;html=1;exitX=1;exitY=0.5;exitDx=0;exitDy=0;entryX=0.5;entryY=0;entryDx=0;entryDy=0;shadow=0;labelBackgroundColor=none;strokeColor=default;strokeWidth=1;fontFamily=Helvetica;fontSize=11;fontColor=default;endArrow=block;endFill=0;endSize=8;" edge="1" parent="WIyWlLk6GJQsqaUBKTNV-1" source="fX1Ia65fQYnZh4xE99EQ-62" target="fX1Ia65fQYnZh4xE99EQ-74">
          <mxGeometry x="-0.28" y="13" relative="1" as="geometry">
            <mxPoint y="-1" as="offset" />
          </mxGeometry>
        </mxCell>
        <mxCell id="fX1Ia65fQYnZh4xE99EQ-62" value="is direcotry?" style="rounded=1;whiteSpace=wrap;html=1;fontSize=12;glass=0;strokeWidth=1;shadow=0;" parent="WIyWlLk6GJQsqaUBKTNV-1" vertex="1">
          <mxGeometry x="210" y="647" width="90" height="30" as="geometry" />
        </mxCell>
        <mxCell id="0BvVbnJKyEt2qMHATExJ-80" style="edgeStyle=orthogonalEdgeStyle;shape=connector;rounded=0;orthogonalLoop=1;jettySize=auto;html=1;entryX=0.5;entryY=0;entryDx=0;entryDy=0;shadow=0;labelBackgroundColor=none;strokeColor=default;strokeWidth=1;fontFamily=Helvetica;fontSize=11;fontColor=default;endArrow=block;endFill=0;endSize=8;" edge="1" parent="WIyWlLk6GJQsqaUBKTNV-1" source="fX1Ia65fQYnZh4xE99EQ-65" target="fX1Ia65fQYnZh4xE99EQ-84">
          <mxGeometry relative="1" as="geometry" />
        </mxCell>
        <mxCell id="fX1Ia65fQYnZh4xE99EQ-65" value="loads dir&amp;nbsp; as a zip&amp;nbsp;" style="rounded=1;whiteSpace=wrap;html=1;fontSize=12;glass=0;strokeWidth=1;shadow=0;" parent="WIyWlLk6GJQsqaUBKTNV-1" vertex="1">
          <mxGeometry x="138" y="710" width="100" height="50" as="geometry" />
        </mxCell>
        <mxCell id="0BvVbnJKyEt2qMHATExJ-84" style="edgeStyle=orthogonalEdgeStyle;shape=connector;rounded=0;orthogonalLoop=1;jettySize=auto;html=1;exitX=0.5;exitY=1;exitDx=0;exitDy=0;entryX=0.5;entryY=0;entryDx=0;entryDy=0;shadow=0;labelBackgroundColor=none;strokeColor=default;strokeWidth=1;fontFamily=Helvetica;fontSize=11;fontColor=default;endArrow=block;endFill=0;endSize=8;" edge="1" parent="WIyWlLk6GJQsqaUBKTNV-1" source="fX1Ia65fQYnZh4xE99EQ-67" target="fX1Ia65fQYnZh4xE99EQ-68">
          <mxGeometry relative="1" as="geometry" />
        </mxCell>
        <mxCell id="fX1Ia65fQYnZh4xE99EQ-67" value="set single segments size&lt;br&gt;closest to cliens request" style="rounded=1;whiteSpace=wrap;html=1;fontSize=12;glass=0;strokeWidth=1;shadow=0;" parent="WIyWlLk6GJQsqaUBKTNV-1" vertex="1">
          <mxGeometry x="200" y="959" width="110" height="60" as="geometry" />
        </mxCell>
        <mxCell id="0BvVbnJKyEt2qMHATExJ-85" style="edgeStyle=orthogonalEdgeStyle;shape=connector;rounded=0;orthogonalLoop=1;jettySize=auto;html=1;exitX=0.5;exitY=1;exitDx=0;exitDy=0;entryX=0.5;entryY=0;entryDx=0;entryDy=0;shadow=0;labelBackgroundColor=none;strokeColor=default;strokeWidth=1;fontFamily=Helvetica;fontSize=11;fontColor=default;endArrow=block;endFill=0;endSize=8;" edge="1" parent="WIyWlLk6GJQsqaUBKTNV-1" source="fX1Ia65fQYnZh4xE99EQ-68" target="fX1Ia65fQYnZh4xE99EQ-69">
          <mxGeometry relative="1" as="geometry" />
        </mxCell>
        <mxCell id="fX1Ia65fQYnZh4xE99EQ-68" value="set segment amount" style="rounded=1;whiteSpace=wrap;html=1;fontSize=12;glass=0;strokeWidth=1;shadow=0;" parent="WIyWlLk6GJQsqaUBKTNV-1" vertex="1">
          <mxGeometry x="205" y="1039" width="100" height="50" as="geometry" />
        </mxCell>
        <mxCell id="0BvVbnJKyEt2qMHATExJ-87" style="edgeStyle=orthogonalEdgeStyle;shape=connector;rounded=0;orthogonalLoop=1;jettySize=auto;html=1;exitX=0.5;exitY=1;exitDx=0;exitDy=0;entryX=0.5;entryY=0;entryDx=0;entryDy=0;shadow=0;labelBackgroundColor=none;strokeColor=default;strokeWidth=1;fontFamily=Helvetica;fontSize=11;fontColor=default;endArrow=block;endFill=0;endSize=8;" edge="1" parent="WIyWlLk6GJQsqaUBKTNV-1" source="fX1Ia65fQYnZh4xE99EQ-69" target="fX1Ia65fQYnZh4xE99EQ-70">
          <mxGeometry relative="1" as="geometry" />
        </mxCell>
        <mxCell id="fX1Ia65fQYnZh4xE99EQ-69" value="send response to the client" style="rounded=1;whiteSpace=wrap;html=1;fontSize=12;glass=0;strokeWidth=1;shadow=0;" parent="WIyWlLk6GJQsqaUBKTNV-1" vertex="1">
          <mxGeometry x="205" y="1119" width="100" height="50" as="geometry" />
        </mxCell>
        <mxCell id="0BvVbnJKyEt2qMHATExJ-110" style="edgeStyle=orthogonalEdgeStyle;shape=connector;rounded=0;orthogonalLoop=1;jettySize=auto;html=1;exitX=0.5;exitY=1;exitDx=0;exitDy=0;entryX=0.5;entryY=0;entryDx=0;entryDy=0;shadow=0;labelBackgroundColor=none;strokeColor=default;strokeWidth=1;fontFamily=Helvetica;fontSize=11;fontColor=default;endArrow=block;endFill=0;endSize=8;" edge="1" parent="WIyWlLk6GJQsqaUBKTNV-1" source="fX1Ia65fQYnZh4xE99EQ-70" target="fX1Ia65fQYnZh4xE99EQ-207">
          <mxGeometry relative="1" as="geometry" />
        </mxCell>
        <mxCell id="fX1Ia65fQYnZh4xE99EQ-70" value="save the handler" style="rounded=1;whiteSpace=wrap;html=1;fontSize=12;glass=0;strokeWidth=1;shadow=0;" parent="WIyWlLk6GJQsqaUBKTNV-1" vertex="1">
          <mxGeometry x="205" y="1189" width="100" height="50" as="geometry" />
        </mxCell>
        <mxCell id="0BvVbnJKyEt2qMHATExJ-81" style="edgeStyle=orthogonalEdgeStyle;shape=connector;rounded=0;orthogonalLoop=1;jettySize=auto;html=1;entryX=0.5;entryY=0;entryDx=0;entryDy=0;shadow=0;labelBackgroundColor=none;strokeColor=default;strokeWidth=1;fontFamily=Helvetica;fontSize=11;fontColor=default;endArrow=block;endFill=0;endSize=8;" edge="1" parent="WIyWlLk6GJQsqaUBKTNV-1" source="fX1Ia65fQYnZh4xE99EQ-74" target="fX1Ia65fQYnZh4xE99EQ-84">
          <mxGeometry relative="1" as="geometry" />
        </mxCell>
        <mxCell id="fX1Ia65fQYnZh4xE99EQ-74" value="loads file" style="rounded=1;whiteSpace=wrap;html=1;fontSize=12;glass=0;strokeWidth=1;shadow=0;" parent="WIyWlLk6GJQsqaUBKTNV-1" vertex="1">
          <mxGeometry x="277" y="710" width="100" height="50" as="geometry" />
        </mxCell>
        <mxCell id="0BvVbnJKyEt2qMHATExJ-61" style="edgeStyle=orthogonalEdgeStyle;shape=connector;rounded=0;orthogonalLoop=1;jettySize=auto;html=1;entryX=0.5;entryY=0;entryDx=0;entryDy=0;shadow=0;labelBackgroundColor=none;strokeColor=default;strokeWidth=1;fontFamily=Helvetica;fontSize=11;fontColor=default;endArrow=block;endFill=0;endSize=8;" edge="1" parent="WIyWlLk6GJQsqaUBKTNV-1" source="fX1Ia65fQYnZh4xE99EQ-82" target="fX1Ia65fQYnZh4xE99EQ-41">
          <mxGeometry relative="1" as="geometry" />
        </mxCell>
        <mxCell id="fX1Ia65fQYnZh4xE99EQ-82" value="create new requestID" style="rounded=1;whiteSpace=wrap;html=1;fontSize=12;glass=0;strokeWidth=1;shadow=0;" parent="WIyWlLk6GJQsqaUBKTNV-1" vertex="1">
          <mxGeometry x="-60" y="644" width="90" height="30" as="geometry" />
        </mxCell>
        <mxCell id="0BvVbnJKyEt2qMHATExJ-83" style="edgeStyle=orthogonalEdgeStyle;shape=connector;rounded=0;orthogonalLoop=1;jettySize=auto;html=1;exitX=0.5;exitY=1;exitDx=0;exitDy=0;entryX=0.5;entryY=0;entryDx=0;entryDy=0;shadow=0;labelBackgroundColor=none;strokeColor=default;strokeWidth=1;fontFamily=Helvetica;fontSize=11;fontColor=default;endArrow=block;endFill=0;endSize=8;" edge="1" parent="WIyWlLk6GJQsqaUBKTNV-1" source="fX1Ia65fQYnZh4xE99EQ-83" target="fX1Ia65fQYnZh4xE99EQ-67">
          <mxGeometry relative="1" as="geometry" />
        </mxCell>
        <mxCell id="fX1Ia65fQYnZh4xE99EQ-83" value="create Download Response packet" style="rounded=1;whiteSpace=wrap;html=1;fontSize=12;glass=0;strokeWidth=1;shadow=0;" parent="WIyWlLk6GJQsqaUBKTNV-1" vertex="1">
          <mxGeometry x="205" y="852" width="100" height="50" as="geometry" />
        </mxCell>
        <mxCell id="0BvVbnJKyEt2qMHATExJ-82" style="edgeStyle=orthogonalEdgeStyle;shape=connector;rounded=0;orthogonalLoop=1;jettySize=auto;html=1;exitX=0.5;exitY=1;exitDx=0;exitDy=0;entryX=0.5;entryY=0;entryDx=0;entryDy=0;shadow=0;labelBackgroundColor=none;strokeColor=default;strokeWidth=1;fontFamily=Helvetica;fontSize=11;fontColor=default;endArrow=block;endFill=0;endSize=8;" edge="1" parent="WIyWlLk6GJQsqaUBKTNV-1" source="fX1Ia65fQYnZh4xE99EQ-84" target="fX1Ia65fQYnZh4xE99EQ-83">
          <mxGeometry relative="1" as="geometry" />
        </mxCell>
        <mxCell id="fX1Ia65fQYnZh4xE99EQ-84" value="create new requestID" style="rounded=1;whiteSpace=wrap;html=1;fontSize=12;glass=0;strokeWidth=1;shadow=0;" parent="WIyWlLk6GJQsqaUBKTNV-1" vertex="1">
          <mxGeometry x="210" y="803" width="90" height="30" as="geometry" />
        </mxCell>
        <mxCell id="fX1Ia65fQYnZh4xE99EQ-91" value="is direcoty legal and exist?" style="rounded=1;whiteSpace=wrap;html=1;fontSize=12;glass=0;strokeWidth=1;shadow=0;" parent="WIyWlLk6GJQsqaUBKTNV-1" vertex="1">
          <mxGeometry x="512.3" y="561" width="90" height="30" as="geometry" />
        </mxCell>
        <mxCell id="fX1Ia65fQYnZh4xE99EQ-92" value="No" style="edgeStyle=orthogonalEdgeStyle;rounded=0;html=1;jettySize=auto;orthogonalLoop=1;fontSize=11;endArrow=block;endFill=0;endSize=8;strokeWidth=1;shadow=0;labelBackgroundColor=none;exitX=0;exitY=0.5;exitDx=0;exitDy=0;entryX=0.5;entryY=0;entryDx=0;entryDy=0;" parent="WIyWlLk6GJQsqaUBKTNV-1" edge="1" target="fX1Ia65fQYnZh4xE99EQ-93" source="fX1Ia65fQYnZh4xE99EQ-91">
          <mxGeometry x="-0.5714" y="-15" relative="1" as="geometry">
            <mxPoint as="offset" />
            <mxPoint x="536.0499999999997" y="630" as="sourcePoint" />
            <mxPoint x="453" y="601" as="targetPoint" />
          </mxGeometry>
        </mxCell>
        <mxCell id="fX1Ia65fQYnZh4xE99EQ-93" value="sends ERROR&lt;br&gt;response" style="rounded=1;whiteSpace=wrap;html=1;fontSize=12;glass=0;strokeWidth=1;shadow=0;" parent="WIyWlLk6GJQsqaUBKTNV-1" vertex="1">
          <mxGeometry x="422.3" y="606" width="90" height="30" as="geometry" />
        </mxCell>
        <mxCell id="0BvVbnJKyEt2qMHATExJ-92" value="Yes" style="edgeStyle=orthogonalEdgeStyle;shape=connector;rounded=0;orthogonalLoop=1;jettySize=auto;html=1;exitX=0;exitY=0.5;exitDx=0;exitDy=0;entryX=0.5;entryY=0;entryDx=0;entryDy=0;shadow=0;labelBackgroundColor=none;strokeColor=default;strokeWidth=1;fontFamily=Helvetica;fontSize=11;fontColor=default;endArrow=block;endFill=0;endSize=8;" edge="1" parent="WIyWlLk6GJQsqaUBKTNV-1" source="fX1Ia65fQYnZh4xE99EQ-95" target="fX1Ia65fQYnZh4xE99EQ-97">
          <mxGeometry x="-0.2724" y="-20" relative="1" as="geometry">
            <mxPoint as="offset" />
          </mxGeometry>
        </mxCell>
        <mxCell id="0BvVbnJKyEt2qMHATExJ-93" value="No" style="edgeStyle=orthogonalEdgeStyle;shape=connector;rounded=0;orthogonalLoop=1;jettySize=auto;html=1;entryX=0.5;entryY=0;entryDx=0;entryDy=0;shadow=0;labelBackgroundColor=none;strokeColor=default;strokeWidth=1;fontFamily=Helvetica;fontSize=11;fontColor=default;endArrow=block;endFill=0;endSize=8;exitX=1;exitY=0.5;exitDx=0;exitDy=0;" edge="1" parent="WIyWlLk6GJQsqaUBKTNV-1" source="fX1Ia65fQYnZh4xE99EQ-95" target="fX1Ia65fQYnZh4xE99EQ-105">
          <mxGeometry x="-0.1694" y="20" relative="1" as="geometry">
            <mxPoint y="-1" as="offset" />
          </mxGeometry>
        </mxCell>
        <mxCell id="fX1Ia65fQYnZh4xE99EQ-95" value="recursive?" style="rounded=1;whiteSpace=wrap;html=1;fontSize=12;glass=0;strokeWidth=1;shadow=0;" parent="WIyWlLk6GJQsqaUBKTNV-1" vertex="1">
          <mxGeometry x="512.3" y="647" width="90" height="30" as="geometry" />
        </mxCell>
        <mxCell id="0BvVbnJKyEt2qMHATExJ-103" style="edgeStyle=orthogonalEdgeStyle;shape=connector;rounded=0;orthogonalLoop=1;jettySize=auto;html=1;exitX=0.5;exitY=1;exitDx=0;exitDy=0;entryX=0.5;entryY=0;entryDx=0;entryDy=0;shadow=0;labelBackgroundColor=none;strokeColor=default;strokeWidth=1;fontFamily=Helvetica;fontSize=11;fontColor=default;endArrow=block;endFill=0;endSize=8;" edge="1" parent="WIyWlLk6GJQsqaUBKTNV-1" source="fX1Ia65fQYnZh4xE99EQ-97" target="fX1Ia65fQYnZh4xE99EQ-108">
          <mxGeometry relative="1" as="geometry" />
        </mxCell>
        <mxCell id="fX1Ia65fQYnZh4xE99EQ-97" value="loads dir info recursivly in bytes" style="rounded=1;whiteSpace=wrap;html=1;fontSize=12;glass=0;strokeWidth=1;shadow=0;" parent="WIyWlLk6GJQsqaUBKTNV-1" vertex="1">
          <mxGeometry x="440" y="701" width="100" height="50" as="geometry" />
        </mxCell>
        <mxCell id="0BvVbnJKyEt2qMHATExJ-100" style="edgeStyle=orthogonalEdgeStyle;shape=connector;rounded=0;orthogonalLoop=1;jettySize=auto;html=1;exitX=0.5;exitY=1;exitDx=0;exitDy=0;entryX=0.5;entryY=0;entryDx=0;entryDy=0;shadow=0;labelBackgroundColor=none;strokeColor=default;strokeWidth=1;fontFamily=Helvetica;fontSize=11;fontColor=default;endArrow=block;endFill=0;endSize=8;" edge="1" parent="WIyWlLk6GJQsqaUBKTNV-1" source="fX1Ia65fQYnZh4xE99EQ-98" target="fX1Ia65fQYnZh4xE99EQ-99">
          <mxGeometry relative="1" as="geometry" />
        </mxCell>
        <mxCell id="fX1Ia65fQYnZh4xE99EQ-98" value="set single segments size&lt;br&gt;closest to cliens request" style="rounded=1;whiteSpace=wrap;html=1;fontSize=12;glass=0;strokeWidth=1;shadow=0;" parent="WIyWlLk6GJQsqaUBKTNV-1" vertex="1">
          <mxGeometry x="502.29999999999995" y="959" width="110" height="60" as="geometry" />
        </mxCell>
        <mxCell id="0BvVbnJKyEt2qMHATExJ-106" style="edgeStyle=orthogonalEdgeStyle;shape=connector;rounded=0;orthogonalLoop=1;jettySize=auto;html=1;exitX=0.5;exitY=1;exitDx=0;exitDy=0;entryX=0.5;entryY=0;entryDx=0;entryDy=0;shadow=0;labelBackgroundColor=none;strokeColor=default;strokeWidth=1;fontFamily=Helvetica;fontSize=11;fontColor=default;endArrow=block;endFill=0;endSize=8;" edge="1" parent="WIyWlLk6GJQsqaUBKTNV-1" source="fX1Ia65fQYnZh4xE99EQ-99" target="fX1Ia65fQYnZh4xE99EQ-100">
          <mxGeometry relative="1" as="geometry" />
        </mxCell>
        <mxCell id="fX1Ia65fQYnZh4xE99EQ-99" value="set segment amount" style="rounded=1;whiteSpace=wrap;html=1;fontSize=12;glass=0;strokeWidth=1;shadow=0;" parent="WIyWlLk6GJQsqaUBKTNV-1" vertex="1">
          <mxGeometry x="507.29999999999995" y="1039" width="100" height="50" as="geometry" />
        </mxCell>
        <mxCell id="0BvVbnJKyEt2qMHATExJ-107" style="edgeStyle=orthogonalEdgeStyle;shape=connector;rounded=0;orthogonalLoop=1;jettySize=auto;html=1;exitX=0.5;exitY=1;exitDx=0;exitDy=0;entryX=0.5;entryY=0;entryDx=0;entryDy=0;shadow=0;labelBackgroundColor=none;strokeColor=default;strokeWidth=1;fontFamily=Helvetica;fontSize=11;fontColor=default;endArrow=block;endFill=0;endSize=8;" edge="1" parent="WIyWlLk6GJQsqaUBKTNV-1" source="fX1Ia65fQYnZh4xE99EQ-100" target="fX1Ia65fQYnZh4xE99EQ-101">
          <mxGeometry relative="1" as="geometry" />
        </mxCell>
        <mxCell id="fX1Ia65fQYnZh4xE99EQ-100" value="send response to the client" style="rounded=1;whiteSpace=wrap;html=1;fontSize=12;glass=0;strokeWidth=1;shadow=0;" parent="WIyWlLk6GJQsqaUBKTNV-1" vertex="1">
          <mxGeometry x="507.29999999999995" y="1119" width="100" height="50" as="geometry" />
        </mxCell>
        <mxCell id="0BvVbnJKyEt2qMHATExJ-109" style="edgeStyle=orthogonalEdgeStyle;shape=connector;rounded=0;orthogonalLoop=1;jettySize=auto;html=1;exitX=0.5;exitY=1;exitDx=0;exitDy=0;entryX=0.5;entryY=0;entryDx=0;entryDy=0;shadow=0;labelBackgroundColor=none;strokeColor=default;strokeWidth=1;fontFamily=Helvetica;fontSize=11;fontColor=default;endArrow=block;endFill=0;endSize=8;" edge="1" parent="WIyWlLk6GJQsqaUBKTNV-1" source="fX1Ia65fQYnZh4xE99EQ-101" target="fX1Ia65fQYnZh4xE99EQ-207">
          <mxGeometry relative="1" as="geometry">
            <Array as="points">
              <mxPoint x="557" y="1259" />
              <mxPoint x="400" y="1259" />
            </Array>
          </mxGeometry>
        </mxCell>
        <mxCell id="fX1Ia65fQYnZh4xE99EQ-101" value="save the handler" style="rounded=1;whiteSpace=wrap;html=1;fontSize=12;glass=0;strokeWidth=1;shadow=0;" parent="WIyWlLk6GJQsqaUBKTNV-1" vertex="1">
          <mxGeometry x="507.29999999999995" y="1189" width="100" height="50" as="geometry" />
        </mxCell>
        <mxCell id="0BvVbnJKyEt2qMHATExJ-104" style="edgeStyle=orthogonalEdgeStyle;shape=connector;rounded=0;orthogonalLoop=1;jettySize=auto;html=1;exitX=0.5;exitY=1;exitDx=0;exitDy=0;entryX=0.5;entryY=0;entryDx=0;entryDy=0;shadow=0;labelBackgroundColor=none;strokeColor=default;strokeWidth=1;fontFamily=Helvetica;fontSize=11;fontColor=default;endArrow=block;endFill=0;endSize=8;" edge="1" parent="WIyWlLk6GJQsqaUBKTNV-1" source="fX1Ia65fQYnZh4xE99EQ-105" target="fX1Ia65fQYnZh4xE99EQ-108">
          <mxGeometry relative="1" as="geometry" />
        </mxCell>
        <mxCell id="fX1Ia65fQYnZh4xE99EQ-105" value="loads dir info in bytes" style="rounded=1;whiteSpace=wrap;html=1;fontSize=12;glass=0;strokeWidth=1;shadow=0;" parent="WIyWlLk6GJQsqaUBKTNV-1" vertex="1">
          <mxGeometry x="580" y="701" width="100" height="50" as="geometry" />
        </mxCell>
        <mxCell id="0BvVbnJKyEt2qMHATExJ-101" style="edgeStyle=orthogonalEdgeStyle;shape=connector;rounded=0;orthogonalLoop=1;jettySize=auto;html=1;exitX=0.5;exitY=1;exitDx=0;exitDy=0;entryX=0.5;entryY=0;entryDx=0;entryDy=0;shadow=0;labelBackgroundColor=none;strokeColor=default;strokeWidth=1;fontFamily=Helvetica;fontSize=11;fontColor=default;endArrow=block;endFill=0;endSize=8;" edge="1" parent="WIyWlLk6GJQsqaUBKTNV-1" source="fX1Ia65fQYnZh4xE99EQ-107" target="fX1Ia65fQYnZh4xE99EQ-98">
          <mxGeometry relative="1" as="geometry" />
        </mxCell>
        <mxCell id="fX1Ia65fQYnZh4xE99EQ-107" value="create List Response packet" style="rounded=1;whiteSpace=wrap;html=1;fontSize=12;glass=0;strokeWidth=1;shadow=0;" parent="WIyWlLk6GJQsqaUBKTNV-1" vertex="1">
          <mxGeometry x="507.29999999999995" y="852" width="100" height="50" as="geometry" />
        </mxCell>
        <mxCell id="0BvVbnJKyEt2qMHATExJ-102" style="edgeStyle=orthogonalEdgeStyle;shape=connector;rounded=0;orthogonalLoop=1;jettySize=auto;html=1;exitX=0.5;exitY=1;exitDx=0;exitDy=0;entryX=0.5;entryY=0;entryDx=0;entryDy=0;shadow=0;labelBackgroundColor=none;strokeColor=default;strokeWidth=1;fontFamily=Helvetica;fontSize=11;fontColor=default;endArrow=block;endFill=0;endSize=8;" edge="1" parent="WIyWlLk6GJQsqaUBKTNV-1" source="fX1Ia65fQYnZh4xE99EQ-108" target="fX1Ia65fQYnZh4xE99EQ-107">
          <mxGeometry relative="1" as="geometry" />
        </mxCell>
        <mxCell id="fX1Ia65fQYnZh4xE99EQ-108" value="create new requestID" style="rounded=1;whiteSpace=wrap;html=1;fontSize=12;glass=0;strokeWidth=1;shadow=0;" parent="WIyWlLk6GJQsqaUBKTNV-1" vertex="1">
          <mxGeometry x="512.3" y="796" width="90" height="30" as="geometry" />
        </mxCell>
        <mxCell id="0BvVbnJKyEt2qMHATExJ-111" style="edgeStyle=orthogonalEdgeStyle;shape=connector;rounded=0;orthogonalLoop=1;jettySize=auto;html=1;exitX=0.5;exitY=1;exitDx=0;exitDy=0;entryX=0.5;entryY=0;entryDx=0;entryDy=0;shadow=0;labelBackgroundColor=none;strokeColor=default;strokeWidth=1;fontFamily=Helvetica;fontSize=11;fontColor=default;endArrow=block;endFill=0;endSize=8;" edge="1" parent="WIyWlLk6GJQsqaUBKTNV-1" source="fX1Ia65fQYnZh4xE99EQ-111" target="fX1Ia65fQYnZh4xE99EQ-112">
          <mxGeometry relative="1" as="geometry" />
        </mxCell>
        <mxCell id="fX1Ia65fQYnZh4xE99EQ-111" value="delete" style="rounded=1;whiteSpace=wrap;html=1;fontSize=12;glass=0;strokeWidth=1;shadow=0;" parent="WIyWlLk6GJQsqaUBKTNV-1" vertex="1">
          <mxGeometry x="813" y="511" width="90" height="30" as="geometry" />
        </mxCell>
        <mxCell id="0BvVbnJKyEt2qMHATExJ-117" style="edgeStyle=orthogonalEdgeStyle;shape=connector;rounded=0;orthogonalLoop=1;jettySize=auto;html=1;exitX=0.5;exitY=1;exitDx=0;exitDy=0;entryX=0.5;entryY=0;entryDx=0;entryDy=0;shadow=0;labelBackgroundColor=none;strokeColor=default;strokeWidth=1;fontFamily=Helvetica;fontSize=11;fontColor=default;endArrow=block;endFill=0;endSize=8;" edge="1" parent="WIyWlLk6GJQsqaUBKTNV-1" source="fX1Ia65fQYnZh4xE99EQ-112" target="fX1Ia65fQYnZh4xE99EQ-116">
          <mxGeometry relative="1" as="geometry" />
        </mxCell>
        <mxCell id="fX1Ia65fQYnZh4xE99EQ-112" value="is legal and exist?" style="rounded=1;whiteSpace=wrap;html=1;fontSize=12;glass=0;strokeWidth=1;shadow=0;" parent="WIyWlLk6GJQsqaUBKTNV-1" vertex="1">
          <mxGeometry x="813" y="561" width="90" height="30" as="geometry" />
        </mxCell>
        <mxCell id="0BvVbnJKyEt2qMHATExJ-118" style="edgeStyle=orthogonalEdgeStyle;shape=connector;rounded=0;orthogonalLoop=1;jettySize=auto;html=1;exitX=0.5;exitY=1;exitDx=0;exitDy=0;entryX=0.5;entryY=0;entryDx=0;entryDy=0;shadow=0;labelBackgroundColor=none;strokeColor=default;strokeWidth=1;fontFamily=Helvetica;fontSize=11;fontColor=default;endArrow=block;endFill=0;endSize=8;" edge="1" parent="WIyWlLk6GJQsqaUBKTNV-1" source="fX1Ia65fQYnZh4xE99EQ-116" target="fX1Ia65fQYnZh4xE99EQ-136">
          <mxGeometry relative="1" as="geometry" />
        </mxCell>
        <mxCell id="fX1Ia65fQYnZh4xE99EQ-116" value="delete the file/directory" style="rounded=1;whiteSpace=wrap;html=1;fontSize=12;glass=0;strokeWidth=1;shadow=0;" parent="WIyWlLk6GJQsqaUBKTNV-1" vertex="1">
          <mxGeometry x="814.5" y="661" width="87" height="31" as="geometry" />
        </mxCell>
        <mxCell id="fX1Ia65fQYnZh4xE99EQ-132" value="send response to the client" style="rounded=1;whiteSpace=wrap;html=1;fontSize=12;glass=0;strokeWidth=1;shadow=0;" parent="WIyWlLk6GJQsqaUBKTNV-1" vertex="1">
          <mxGeometry x="808" y="830" width="100" height="50" as="geometry" />
        </mxCell>
        <mxCell id="0BvVbnJKyEt2qMHATExJ-120" style="edgeStyle=orthogonalEdgeStyle;shape=connector;rounded=0;orthogonalLoop=1;jettySize=auto;html=1;exitX=0.5;exitY=1;exitDx=0;exitDy=0;entryX=0.5;entryY=0;entryDx=0;entryDy=0;shadow=0;labelBackgroundColor=none;strokeColor=default;strokeWidth=1;fontFamily=Helvetica;fontSize=11;fontColor=default;endArrow=block;endFill=0;endSize=8;" edge="1" parent="WIyWlLk6GJQsqaUBKTNV-1" source="fX1Ia65fQYnZh4xE99EQ-135" target="fX1Ia65fQYnZh4xE99EQ-132">
          <mxGeometry relative="1" as="geometry" />
        </mxCell>
        <mxCell id="fX1Ia65fQYnZh4xE99EQ-135" value="create Delete Response packet" style="rounded=1;whiteSpace=wrap;html=1;fontSize=12;glass=0;strokeWidth=1;shadow=0;" parent="WIyWlLk6GJQsqaUBKTNV-1" vertex="1">
          <mxGeometry x="808" y="754" width="100" height="50" as="geometry" />
        </mxCell>
        <mxCell id="0BvVbnJKyEt2qMHATExJ-119" style="edgeStyle=orthogonalEdgeStyle;shape=connector;rounded=0;orthogonalLoop=1;jettySize=auto;html=1;exitX=0.5;exitY=1;exitDx=0;exitDy=0;entryX=0.5;entryY=0;entryDx=0;entryDy=0;shadow=0;labelBackgroundColor=none;strokeColor=default;strokeWidth=1;fontFamily=Helvetica;fontSize=11;fontColor=default;endArrow=block;endFill=0;endSize=8;" edge="1" parent="WIyWlLk6GJQsqaUBKTNV-1" source="fX1Ia65fQYnZh4xE99EQ-136" target="fX1Ia65fQYnZh4xE99EQ-135">
          <mxGeometry relative="1" as="geometry" />
        </mxCell>
        <mxCell id="fX1Ia65fQYnZh4xE99EQ-136" value="create new requestID" style="rounded=1;whiteSpace=wrap;html=1;fontSize=12;glass=0;strokeWidth=1;shadow=0;" parent="WIyWlLk6GJQsqaUBKTNV-1" vertex="1">
          <mxGeometry x="813" y="708" width="90" height="30" as="geometry" />
        </mxCell>
        <mxCell id="fX1Ia65fQYnZh4xE99EQ-149" value="Yes" style="rounded=0;html=1;jettySize=auto;orthogonalLoop=1;fontSize=11;endArrow=block;endFill=0;endSize=8;strokeWidth=1;shadow=0;labelBackgroundColor=none;edgeStyle=orthogonalEdgeStyle;exitX=0.5;exitY=1;exitDx=0;exitDy=0;entryX=0.5;entryY=0;entryDx=0;entryDy=0;" parent="WIyWlLk6GJQsqaUBKTNV-1" edge="1" target="fX1Ia65fQYnZh4xE99EQ-153" source="fX1Ia65fQYnZh4xE99EQ-3">
          <mxGeometry x="0.0066" y="10" relative="1" as="geometry">
            <mxPoint as="offset" />
            <mxPoint x="1184.5" y="324" as="sourcePoint" />
            <mxPoint x="1184.5" y="364" as="targetPoint" />
          </mxGeometry>
        </mxCell>
        <mxCell id="fX1Ia65fQYnZh4xE99EQ-150" value="No" style="edgeStyle=orthogonalEdgeStyle;rounded=0;html=1;jettySize=auto;orthogonalLoop=1;fontSize=11;endArrow=block;endFill=0;endSize=8;strokeWidth=1;shadow=0;labelBackgroundColor=none;exitX=0;exitY=0.5;exitDx=0;exitDy=0;entryX=0.5;entryY=0;entryDx=0;entryDy=0;" parent="WIyWlLk6GJQsqaUBKTNV-1" edge="1" target="fX1Ia65fQYnZh4xE99EQ-151" source="fX1Ia65fQYnZh4xE99EQ-3">
          <mxGeometry x="-0.131" y="-10" relative="1" as="geometry">
            <mxPoint x="10" y="-10" as="offset" />
            <mxPoint x="1090.25" y="324" as="sourcePoint" />
            <mxPoint x="1090" y="360" as="targetPoint" />
          </mxGeometry>
        </mxCell>
        <mxCell id="fX1Ia65fQYnZh4xE99EQ-151" value="send &quot;close&quot; packet" style="rounded=1;whiteSpace=wrap;html=1;fontSize=12;glass=0;strokeWidth=1;shadow=0;" parent="WIyWlLk6GJQsqaUBKTNV-1" vertex="1">
          <mxGeometry x="971" y="241" width="135" height="30" as="geometry" />
        </mxCell>
        <mxCell id="0BvVbnJKyEt2qMHATExJ-123" value="Yes" style="edgeStyle=orthogonalEdgeStyle;shape=connector;rounded=0;orthogonalLoop=1;jettySize=auto;html=1;exitX=0;exitY=0.5;exitDx=0;exitDy=0;entryX=0.5;entryY=0;entryDx=0;entryDy=0;shadow=0;labelBackgroundColor=none;strokeColor=default;strokeWidth=1;fontFamily=Helvetica;fontSize=11;fontColor=default;endArrow=block;endFill=0;endSize=8;" edge="1" parent="WIyWlLk6GJQsqaUBKTNV-1" source="fX1Ia65fQYnZh4xE99EQ-153" target="fX1Ia65fQYnZh4xE99EQ-155">
          <mxGeometry x="-0.4667" y="-15" relative="1" as="geometry">
            <mxPoint x="15" y="-15" as="offset" />
          </mxGeometry>
        </mxCell>
        <mxCell id="0BvVbnJKyEt2qMHATExJ-125" value="No" style="edgeStyle=orthogonalEdgeStyle;shape=connector;rounded=0;orthogonalLoop=1;jettySize=auto;html=1;exitX=1;exitY=0.5;exitDx=0;exitDy=0;entryX=0.5;entryY=0;entryDx=0;entryDy=0;shadow=0;labelBackgroundColor=none;strokeColor=default;strokeWidth=1;fontFamily=Helvetica;fontSize=11;fontColor=default;endArrow=block;endFill=0;endSize=8;" edge="1" parent="WIyWlLk6GJQsqaUBKTNV-1" source="fX1Ia65fQYnZh4xE99EQ-153" target="fX1Ia65fQYnZh4xE99EQ-210">
          <mxGeometry x="-0.4805" y="-15" relative="1" as="geometry">
            <mxPoint x="15" y="-15" as="offset" />
          </mxGeometry>
        </mxCell>
        <mxCell id="fX1Ia65fQYnZh4xE99EQ-153" value="is Upload handler?" style="rounded=1;whiteSpace=wrap;html=1;fontSize=12;glass=0;strokeWidth=1;shadow=0;" parent="WIyWlLk6GJQsqaUBKTNV-1" vertex="1">
          <mxGeometry x="1073" y="290" width="130" height="30" as="geometry" />
        </mxCell>
        <mxCell id="fX1Ia65fQYnZh4xE99EQ-154" value="print ERROR log message" style="rounded=1;whiteSpace=wrap;html=1;fontSize=12;glass=0;strokeWidth=1;shadow=0;" parent="WIyWlLk6GJQsqaUBKTNV-1" vertex="1">
          <mxGeometry x="940" y="407" width="90" height="30" as="geometry" />
        </mxCell>
        <mxCell id="fX1Ia65fQYnZh4xE99EQ-155" value="check if valid packet segment" style="rounded=1;whiteSpace=wrap;html=1;fontSize=12;glass=0;strokeWidth=1;shadow=0;" parent="WIyWlLk6GJQsqaUBKTNV-1" vertex="1">
          <mxGeometry x="1008" y="360" width="90" height="30" as="geometry" />
        </mxCell>
        <mxCell id="0BvVbnJKyEt2qMHATExJ-129" style="edgeStyle=orthogonalEdgeStyle;shape=connector;rounded=0;orthogonalLoop=1;jettySize=auto;html=1;exitX=0.5;exitY=1;exitDx=0;exitDy=0;entryX=0.5;entryY=0;entryDx=0;entryDy=0;shadow=0;labelBackgroundColor=none;strokeColor=default;strokeWidth=1;fontFamily=Helvetica;fontSize=11;fontColor=default;endArrow=block;endFill=0;endSize=8;" edge="1" parent="WIyWlLk6GJQsqaUBKTNV-1" source="fX1Ia65fQYnZh4xE99EQ-156" target="fX1Ia65fQYnZh4xE99EQ-165">
          <mxGeometry relative="1" as="geometry" />
        </mxCell>
        <mxCell id="fX1Ia65fQYnZh4xE99EQ-156" value="saves segmet in hadler (only if doesnt exists)" style="rounded=1;whiteSpace=wrap;html=1;fontSize=12;glass=0;strokeWidth=1;shadow=0;" parent="WIyWlLk6GJQsqaUBKTNV-1" vertex="1">
          <mxGeometry x="1008" y="452" width="90" height="50" as="geometry" />
        </mxCell>
        <mxCell id="fX1Ia65fQYnZh4xE99EQ-162" value="Yes" style="rounded=0;html=1;jettySize=auto;orthogonalLoop=1;fontSize=11;endArrow=block;endFill=0;endSize=8;strokeWidth=1;shadow=0;labelBackgroundColor=none;edgeStyle=orthogonalEdgeStyle;exitX=0.5;exitY=1;exitDx=0;exitDy=0;entryX=0.5;entryY=0;entryDx=0;entryDy=0;" parent="WIyWlLk6GJQsqaUBKTNV-1" edge="1" target="fX1Ia65fQYnZh4xE99EQ-156" source="fX1Ia65fQYnZh4xE99EQ-155">
          <mxGeometry y="20" relative="1" as="geometry">
            <mxPoint as="offset" />
            <mxPoint x="1049.5" y="470" as="sourcePoint" />
            <mxPoint x="1049.5" y="510" as="targetPoint" />
          </mxGeometry>
        </mxCell>
        <mxCell id="0BvVbnJKyEt2qMHATExJ-130" style="edgeStyle=orthogonalEdgeStyle;shape=connector;rounded=0;orthogonalLoop=1;jettySize=auto;html=1;exitX=0.5;exitY=1;exitDx=0;exitDy=0;entryX=0.5;entryY=0;entryDx=0;entryDy=0;shadow=0;labelBackgroundColor=none;strokeColor=default;strokeWidth=1;fontFamily=Helvetica;fontSize=11;fontColor=default;endArrow=block;endFill=0;endSize=8;" edge="1" parent="WIyWlLk6GJQsqaUBKTNV-1" source="fX1Ia65fQYnZh4xE99EQ-165" target="fX1Ia65fQYnZh4xE99EQ-167">
          <mxGeometry relative="1" as="geometry" />
        </mxCell>
        <mxCell id="fX1Ia65fQYnZh4xE99EQ-165" value="sends ACK massage to cliet" style="rounded=1;whiteSpace=wrap;html=1;fontSize=12;glass=0;strokeWidth=1;shadow=0;" parent="WIyWlLk6GJQsqaUBKTNV-1" vertex="1">
          <mxGeometry x="1008" y="531" width="90" height="30" as="geometry" />
        </mxCell>
        <mxCell id="0BvVbnJKyEt2qMHATExJ-135" value="No" style="edgeStyle=orthogonalEdgeStyle;shape=connector;rounded=0;orthogonalLoop=1;jettySize=auto;html=1;exitX=0;exitY=0.5;exitDx=0;exitDy=0;entryX=0.5;entryY=0;entryDx=0;entryDy=0;shadow=0;labelBackgroundColor=none;strokeColor=default;strokeWidth=1;fontFamily=Helvetica;fontSize=11;fontColor=default;endArrow=block;endFill=0;endSize=8;" edge="1" parent="WIyWlLk6GJQsqaUBKTNV-1" source="fX1Ia65fQYnZh4xE99EQ-167" target="fX1Ia65fQYnZh4xE99EQ-170">
          <mxGeometry x="-0.3548" y="-11" relative="1" as="geometry">
            <mxPoint as="offset" />
          </mxGeometry>
        </mxCell>
        <mxCell id="fX1Ia65fQYnZh4xE99EQ-167" value="if all segments has been recived?" style="rounded=1;whiteSpace=wrap;html=1;fontSize=12;glass=0;strokeWidth=1;shadow=0;" parent="WIyWlLk6GJQsqaUBKTNV-1" vertex="1">
          <mxGeometry x="1008" y="596" width="90" height="50" as="geometry" />
        </mxCell>
        <mxCell id="fX1Ia65fQYnZh4xE99EQ-168" value="Yes" style="rounded=0;html=1;jettySize=auto;orthogonalLoop=1;fontSize=11;endArrow=block;endFill=0;endSize=8;strokeWidth=1;shadow=0;labelBackgroundColor=none;edgeStyle=orthogonalEdgeStyle;entryX=0.5;entryY=0;entryDx=0;entryDy=0;exitX=0.5;exitY=1;exitDx=0;exitDy=0;" parent="WIyWlLk6GJQsqaUBKTNV-1" edge="1" target="fX1Ia65fQYnZh4xE99EQ-171" source="fX1Ia65fQYnZh4xE99EQ-167">
          <mxGeometry y="20" relative="1" as="geometry">
            <mxPoint as="offset" />
            <mxPoint x="1105.5" y="710" as="sourcePoint" />
            <mxPoint x="1108" y="750" as="targetPoint" />
          </mxGeometry>
        </mxCell>
        <mxCell id="fX1Ia65fQYnZh4xE99EQ-170" value="going back" style="rounded=1;whiteSpace=wrap;html=1;fontSize=12;glass=0;strokeWidth=1;shadow=0;" parent="WIyWlLk6GJQsqaUBKTNV-1" vertex="1">
          <mxGeometry x="942" y="662" width="90" height="30" as="geometry" />
        </mxCell>
        <mxCell id="0BvVbnJKyEt2qMHATExJ-136" style="edgeStyle=orthogonalEdgeStyle;shape=connector;rounded=0;orthogonalLoop=1;jettySize=auto;html=1;exitX=0.5;exitY=1;exitDx=0;exitDy=0;entryX=0.5;entryY=0;entryDx=0;entryDy=0;shadow=0;labelBackgroundColor=none;strokeColor=default;strokeWidth=1;fontFamily=Helvetica;fontSize=11;fontColor=default;endArrow=block;endFill=0;endSize=8;" edge="1" parent="WIyWlLk6GJQsqaUBKTNV-1" source="fX1Ia65fQYnZh4xE99EQ-171" target="fX1Ia65fQYnZh4xE99EQ-201">
          <mxGeometry relative="1" as="geometry" />
        </mxCell>
        <mxCell id="fX1Ia65fQYnZh4xE99EQ-171" value="comines all segments into one data frame" style="rounded=1;whiteSpace=wrap;html=1;fontSize=12;glass=0;strokeWidth=1;shadow=0;" parent="WIyWlLk6GJQsqaUBKTNV-1" vertex="1">
          <mxGeometry x="1008" y="720" width="90" height="50" as="geometry" />
        </mxCell>
        <mxCell id="0BvVbnJKyEt2qMHATExJ-146" value="No" style="edgeStyle=orthogonalEdgeStyle;shape=connector;rounded=0;orthogonalLoop=1;jettySize=auto;html=1;exitX=0.5;exitY=1;exitDx=0;exitDy=0;entryX=0.5;entryY=0;entryDx=0;entryDy=0;shadow=0;labelBackgroundColor=none;strokeColor=default;strokeWidth=1;fontFamily=Helvetica;fontSize=11;fontColor=default;endArrow=block;endFill=0;endSize=8;" edge="1" parent="WIyWlLk6GJQsqaUBKTNV-1" source="fX1Ia65fQYnZh4xE99EQ-173" target="fX1Ia65fQYnZh4xE99EQ-187">
          <mxGeometry x="-0.705" y="-18" relative="1" as="geometry">
            <mxPoint as="offset" />
          </mxGeometry>
        </mxCell>
        <mxCell id="fX1Ia65fQYnZh4xE99EQ-173" value="is already exists?" style="rounded=1;whiteSpace=wrap;html=1;fontSize=12;glass=0;strokeWidth=1;shadow=0;" parent="WIyWlLk6GJQsqaUBKTNV-1" vertex="1">
          <mxGeometry x="1008.25" y="976" width="90" height="50" as="geometry" />
        </mxCell>
        <mxCell id="fX1Ia65fQYnZh4xE99EQ-175" value="Yes" style="rounded=0;html=1;jettySize=auto;orthogonalLoop=1;fontSize=11;endArrow=block;endFill=0;endSize=8;strokeWidth=1;shadow=0;labelBackgroundColor=none;edgeStyle=orthogonalEdgeStyle;exitX=1;exitY=0.5;exitDx=0;exitDy=0;entryX=0.5;entryY=0;entryDx=0;entryDy=0;" parent="WIyWlLk6GJQsqaUBKTNV-1" edge="1" target="fX1Ia65fQYnZh4xE99EQ-178" source="fX1Ia65fQYnZh4xE99EQ-173">
          <mxGeometry y="20" relative="1" as="geometry">
            <mxPoint as="offset" />
            <mxPoint x="1086.25" y="1039" as="sourcePoint" />
            <mxPoint x="1086.25" y="1079" as="targetPoint" />
          </mxGeometry>
        </mxCell>
        <mxCell id="0BvVbnJKyEt2qMHATExJ-149" style="edgeStyle=orthogonalEdgeStyle;shape=connector;rounded=0;orthogonalLoop=1;jettySize=auto;html=1;exitX=0.5;exitY=1;exitDx=0;exitDy=0;entryX=0.5;entryY=0;entryDx=0;entryDy=0;shadow=0;labelBackgroundColor=none;strokeColor=default;strokeWidth=1;fontFamily=Helvetica;fontSize=11;fontColor=default;endArrow=block;endFill=0;endSize=8;" edge="1" parent="WIyWlLk6GJQsqaUBKTNV-1" source="fX1Ia65fQYnZh4xE99EQ-178" target="fX1Ia65fQYnZh4xE99EQ-187">
          <mxGeometry relative="1" as="geometry" />
        </mxCell>
        <mxCell id="fX1Ia65fQYnZh4xE99EQ-178" value="delete it" style="rounded=1;whiteSpace=wrap;html=1;fontSize=12;glass=0;strokeWidth=1;shadow=0;" parent="WIyWlLk6GJQsqaUBKTNV-1" vertex="1">
          <mxGeometry x="1080.25" y="1036" width="90" height="30" as="geometry" />
        </mxCell>
        <mxCell id="0BvVbnJKyEt2qMHATExJ-148" value="Yes" style="edgeStyle=orthogonalEdgeStyle;shape=connector;rounded=0;orthogonalLoop=1;jettySize=auto;html=1;exitX=0.5;exitY=1;exitDx=0;exitDy=0;entryX=0.5;entryY=0;entryDx=0;entryDy=0;shadow=0;labelBackgroundColor=none;strokeColor=default;strokeWidth=1;fontFamily=Helvetica;fontSize=11;fontColor=default;endArrow=block;endFill=0;endSize=8;" edge="1" parent="WIyWlLk6GJQsqaUBKTNV-1" source="fX1Ia65fQYnZh4xE99EQ-187" target="fX1Ia65fQYnZh4xE99EQ-194">
          <mxGeometry x="-0.204" y="17" relative="1" as="geometry">
            <mxPoint as="offset" />
          </mxGeometry>
        </mxCell>
        <mxCell id="fX1Ia65fQYnZh4xE99EQ-187" value="is Parent exists?" style="rounded=1;whiteSpace=wrap;html=1;fontSize=12;glass=0;strokeWidth=1;shadow=0;" parent="WIyWlLk6GJQsqaUBKTNV-1" vertex="1">
          <mxGeometry x="1008.25" y="1106" width="90" height="50" as="geometry" />
        </mxCell>
        <mxCell id="fX1Ia65fQYnZh4xE99EQ-188" value="No" style="rounded=0;html=1;jettySize=auto;orthogonalLoop=1;fontSize=11;endArrow=block;endFill=0;endSize=8;strokeWidth=1;shadow=0;labelBackgroundColor=none;edgeStyle=orthogonalEdgeStyle;exitX=0;exitY=0.5;exitDx=0;exitDy=0;entryX=0.5;entryY=0;entryDx=0;entryDy=0;" parent="WIyWlLk6GJQsqaUBKTNV-1" edge="1" target="fX1Ia65fQYnZh4xE99EQ-190" source="fX1Ia65fQYnZh4xE99EQ-187">
          <mxGeometry x="-0.3743" y="-15" relative="1" as="geometry">
            <mxPoint as="offset" />
            <mxPoint x="1088.25" y="1199" as="sourcePoint" />
            <mxPoint x="1088.25" y="1239" as="targetPoint" />
          </mxGeometry>
        </mxCell>
        <mxCell id="0BvVbnJKyEt2qMHATExJ-150" style="edgeStyle=orthogonalEdgeStyle;shape=connector;rounded=0;orthogonalLoop=1;jettySize=auto;html=1;exitX=0.5;exitY=1;exitDx=0;exitDy=0;entryX=0.5;entryY=0;entryDx=0;entryDy=0;shadow=0;labelBackgroundColor=none;strokeColor=default;strokeWidth=1;fontFamily=Helvetica;fontSize=11;fontColor=default;endArrow=block;endFill=0;endSize=8;" edge="1" parent="WIyWlLk6GJQsqaUBKTNV-1" source="fX1Ia65fQYnZh4xE99EQ-190" target="fX1Ia65fQYnZh4xE99EQ-194">
          <mxGeometry relative="1" as="geometry" />
        </mxCell>
        <mxCell id="fX1Ia65fQYnZh4xE99EQ-190" value="creates it" style="rounded=1;whiteSpace=wrap;html=1;fontSize=12;glass=0;strokeWidth=1;shadow=0;" parent="WIyWlLk6GJQsqaUBKTNV-1" vertex="1">
          <mxGeometry x="941.75" y="1186" width="90" height="30" as="geometry" />
        </mxCell>
        <mxCell id="0BvVbnJKyEt2qMHATExJ-151" value="Yes" style="edgeStyle=orthogonalEdgeStyle;shape=connector;rounded=0;orthogonalLoop=1;jettySize=auto;html=1;exitX=1;exitY=0.5;exitDx=0;exitDy=0;entryX=0.5;entryY=0;entryDx=0;entryDy=0;shadow=0;labelBackgroundColor=none;strokeColor=default;strokeWidth=1;fontFamily=Helvetica;fontSize=11;fontColor=default;endArrow=block;endFill=0;endSize=8;" edge="1" parent="WIyWlLk6GJQsqaUBKTNV-1" source="fX1Ia65fQYnZh4xE99EQ-194" target="fX1Ia65fQYnZh4xE99EQ-198">
          <mxGeometry x="-0.3548" y="15" relative="1" as="geometry">
            <mxPoint x="-13" y="-15" as="offset" />
          </mxGeometry>
        </mxCell>
        <mxCell id="0BvVbnJKyEt2qMHATExJ-152" value="No" style="edgeStyle=orthogonalEdgeStyle;shape=connector;rounded=0;orthogonalLoop=1;jettySize=auto;html=1;exitX=0;exitY=0.5;exitDx=0;exitDy=0;entryX=0.5;entryY=0;entryDx=0;entryDy=0;shadow=0;labelBackgroundColor=none;strokeColor=default;strokeWidth=1;fontFamily=Helvetica;fontSize=11;fontColor=default;endArrow=block;endFill=0;endSize=8;" edge="1" parent="WIyWlLk6GJQsqaUBKTNV-1" source="fX1Ia65fQYnZh4xE99EQ-194" target="fX1Ia65fQYnZh4xE99EQ-199">
          <mxGeometry x="-0.4545" y="-15" relative="1" as="geometry">
            <mxPoint as="offset" />
          </mxGeometry>
        </mxCell>
        <mxCell id="fX1Ia65fQYnZh4xE99EQ-194" value="is File?" style="rounded=1;whiteSpace=wrap;html=1;fontSize=12;glass=0;strokeWidth=1;shadow=0;" parent="WIyWlLk6GJQsqaUBKTNV-1" vertex="1">
          <mxGeometry x="1007.75" y="1256" width="90" height="50" as="geometry" />
        </mxCell>
        <mxCell id="0BvVbnJKyEt2qMHATExJ-153" style="edgeStyle=orthogonalEdgeStyle;shape=connector;rounded=0;orthogonalLoop=1;jettySize=auto;html=1;exitX=0.5;exitY=1;exitDx=0;exitDy=0;entryX=0.5;entryY=0;entryDx=0;entryDy=0;shadow=0;labelBackgroundColor=none;strokeColor=default;strokeWidth=1;fontFamily=Helvetica;fontSize=11;fontColor=default;endArrow=block;endFill=0;endSize=8;" edge="1" parent="WIyWlLk6GJQsqaUBKTNV-1" source="fX1Ia65fQYnZh4xE99EQ-198" target="fX1Ia65fQYnZh4xE99EQ-202">
          <mxGeometry relative="1" as="geometry" />
        </mxCell>
        <mxCell id="fX1Ia65fQYnZh4xE99EQ-198" value="creates it" style="rounded=1;whiteSpace=wrap;html=1;fontSize=12;glass=0;strokeWidth=1;shadow=0;" parent="WIyWlLk6GJQsqaUBKTNV-1" vertex="1">
          <mxGeometry x="1072.75" y="1323" width="90" height="30" as="geometry" />
        </mxCell>
        <mxCell id="0BvVbnJKyEt2qMHATExJ-156" style="edgeStyle=orthogonalEdgeStyle;shape=connector;rounded=0;orthogonalLoop=1;jettySize=auto;html=1;exitX=0.5;exitY=1;exitDx=0;exitDy=0;entryX=0.5;entryY=0;entryDx=0;entryDy=0;shadow=0;labelBackgroundColor=none;strokeColor=default;strokeWidth=1;fontFamily=Helvetica;fontSize=11;fontColor=default;endArrow=block;endFill=0;endSize=8;" edge="1" parent="WIyWlLk6GJQsqaUBKTNV-1" source="fX1Ia65fQYnZh4xE99EQ-199" target="fX1Ia65fQYnZh4xE99EQ-202">
          <mxGeometry relative="1" as="geometry" />
        </mxCell>
        <mxCell id="fX1Ia65fQYnZh4xE99EQ-199" value="extract it" style="rounded=1;whiteSpace=wrap;html=1;fontSize=12;glass=0;strokeWidth=1;shadow=0;" parent="WIyWlLk6GJQsqaUBKTNV-1" vertex="1">
          <mxGeometry x="939.75" y="1324" width="90" height="29" as="geometry" />
        </mxCell>
        <mxCell id="0BvVbnJKyEt2qMHATExJ-144" style="edgeStyle=orthogonalEdgeStyle;shape=connector;rounded=0;orthogonalLoop=1;jettySize=auto;html=1;exitX=0.5;exitY=1;exitDx=0;exitDy=0;entryX=0.5;entryY=0;entryDx=0;entryDy=0;shadow=0;labelBackgroundColor=none;strokeColor=default;strokeWidth=1;fontFamily=Helvetica;fontSize=11;fontColor=default;endArrow=block;endFill=0;endSize=8;" edge="1" parent="WIyWlLk6GJQsqaUBKTNV-1" source="fX1Ia65fQYnZh4xE99EQ-201" target="fX1Ia65fQYnZh4xE99EQ-173">
          <mxGeometry relative="1" as="geometry" />
        </mxCell>
        <mxCell id="fX1Ia65fQYnZh4xE99EQ-201" value="send &quot;close&quot; to the client" style="rounded=1;whiteSpace=wrap;html=1;fontSize=12;glass=0;strokeWidth=1;shadow=0;" parent="WIyWlLk6GJQsqaUBKTNV-1" vertex="1">
          <mxGeometry x="993.75" y="902" width="119" height="50" as="geometry" />
        </mxCell>
        <mxCell id="fX1Ia65fQYnZh4xE99EQ-202" value="Remove the Handler" style="rounded=1;whiteSpace=wrap;html=1;fontSize=12;glass=0;strokeWidth=1;shadow=0;" parent="WIyWlLk6GJQsqaUBKTNV-1" vertex="1">
          <mxGeometry x="993.75" y="1396" width="119" height="50" as="geometry" />
        </mxCell>
        <mxCell id="fX1Ia65fQYnZh4xE99EQ-207" value="set the Handler as &quot;no ready&quot;" style="whiteSpace=wrap;html=1;rounded=1;glass=0;strokeWidth=1;shadow=0;" parent="WIyWlLk6GJQsqaUBKTNV-1" vertex="1">
          <mxGeometry x="340" y="1279" width="120" height="60" as="geometry" />
        </mxCell>
        <mxCell id="0BvVbnJKyEt2qMHATExJ-138" value="No" style="edgeStyle=orthogonalEdgeStyle;shape=connector;rounded=0;orthogonalLoop=1;jettySize=auto;html=1;exitX=0.5;exitY=1;exitDx=0;exitDy=0;entryX=0.5;entryY=0;entryDx=0;entryDy=0;shadow=0;labelBackgroundColor=none;strokeColor=default;strokeWidth=1;fontFamily=Helvetica;fontSize=11;fontColor=default;endArrow=block;endFill=0;endSize=8;" edge="1" parent="WIyWlLk6GJQsqaUBKTNV-1" source="fX1Ia65fQYnZh4xE99EQ-210" target="fX1Ia65fQYnZh4xE99EQ-214">
          <mxGeometry x="-0.0526" y="17" relative="1" as="geometry">
            <mxPoint as="offset" />
          </mxGeometry>
        </mxCell>
        <mxCell id="fX1Ia65fQYnZh4xE99EQ-210" value="is not ready?" style="rounded=1;whiteSpace=wrap;html=1;fontSize=12;glass=0;strokeWidth=1;shadow=0;" parent="WIyWlLk6GJQsqaUBKTNV-1" vertex="1">
          <mxGeometry x="1178" y="362" width="90" height="30" as="geometry" />
        </mxCell>
        <mxCell id="fX1Ia65fQYnZh4xE99EQ-212" value="Yes" style="rounded=0;html=1;jettySize=auto;orthogonalLoop=1;fontSize=11;endArrow=block;endFill=0;endSize=8;strokeWidth=1;shadow=0;labelBackgroundColor=none;edgeStyle=orthogonalEdgeStyle;exitX=1;exitY=0.5;exitDx=0;exitDy=0;" parent="WIyWlLk6GJQsqaUBKTNV-1" edge="1" source="fX1Ia65fQYnZh4xE99EQ-210">
          <mxGeometry x="-0.5294" y="7" relative="1" as="geometry">
            <mxPoint as="offset" />
            <mxPoint x="1312.5" y="386" as="sourcePoint" />
            <mxPoint x="1312.5" y="426" as="targetPoint" />
          </mxGeometry>
        </mxCell>
        <mxCell id="0BvVbnJKyEt2qMHATExJ-139" style="edgeStyle=orthogonalEdgeStyle;shape=connector;rounded=0;orthogonalLoop=1;jettySize=auto;html=1;exitX=0.5;exitY=1;exitDx=0;exitDy=0;entryX=0.5;entryY=0;entryDx=0;entryDy=0;shadow=0;labelBackgroundColor=none;strokeColor=default;strokeWidth=1;fontFamily=Helvetica;fontSize=11;fontColor=default;endArrow=block;endFill=0;endSize=8;" edge="1" parent="WIyWlLk6GJQsqaUBKTNV-1" source="fX1Ia65fQYnZh4xE99EQ-214" target="fX1Ia65fQYnZh4xE99EQ-217">
          <mxGeometry relative="1" as="geometry" />
        </mxCell>
        <mxCell id="fX1Ia65fQYnZh4xE99EQ-214" value="turn to ready" style="rounded=1;whiteSpace=wrap;html=1;fontSize=12;glass=0;strokeWidth=1;shadow=0;" parent="WIyWlLk6GJQsqaUBKTNV-1" vertex="1">
          <mxGeometry x="1178" y="430" width="90" height="30" as="geometry" />
        </mxCell>
        <mxCell id="fX1Ia65fQYnZh4xE99EQ-215" value="adds the packet to the Handler" style="rounded=1;whiteSpace=wrap;html=1;fontSize=12;glass=0;strokeWidth=1;shadow=0;" parent="WIyWlLk6GJQsqaUBKTNV-1" vertex="1">
          <mxGeometry x="1280" y="428" width="90" height="30" as="geometry" />
        </mxCell>
        <mxCell id="fX1Ia65fQYnZh4xE99EQ-217" value="open single thread" style="rounded=1;whiteSpace=wrap;html=1;fontSize=12;glass=0;strokeWidth=1;shadow=0;" parent="WIyWlLk6GJQsqaUBKTNV-1" vertex="1">
          <mxGeometry x="1178" y="491" width="90" height="40" as="geometry" />
        </mxCell>
        <mxCell id="0BvVbnJKyEt2qMHATExJ-140" style="edgeStyle=orthogonalEdgeStyle;shape=connector;rounded=0;orthogonalLoop=1;jettySize=auto;html=1;exitX=0.5;exitY=1;exitDx=0;exitDy=0;entryX=0.5;entryY=0;entryDx=0;entryDy=0;shadow=0;labelBackgroundColor=none;strokeColor=default;strokeWidth=1;fontFamily=Helvetica;fontSize=11;fontColor=default;endArrow=block;endFill=0;endSize=8;" edge="1" parent="WIyWlLk6GJQsqaUBKTNV-1" source="fX1Ia65fQYnZh4xE99EQ-219" target="fX1Ia65fQYnZh4xE99EQ-222">
          <mxGeometry relative="1" as="geometry" />
        </mxCell>
        <mxCell id="fX1Ia65fQYnZh4xE99EQ-219" value="loads info from response" style="rounded=1;whiteSpace=wrap;html=1;fontSize=12;glass=0;strokeWidth=1;shadow=0;" parent="WIyWlLk6GJQsqaUBKTNV-1" vertex="1">
          <mxGeometry x="1178" y="599.5" width="90" height="35" as="geometry" />
        </mxCell>
        <mxCell id="fX1Ia65fQYnZh4xE99EQ-221" value="" style="endArrow=none;dashed=1;html=1;dashPattern=1 3;strokeWidth=2;rounded=0;entryX=0.5;entryY=1;entryDx=0;entryDy=0;exitX=0.5;exitY=0;exitDx=0;exitDy=0;" parent="WIyWlLk6GJQsqaUBKTNV-1" edge="1" target="fX1Ia65fQYnZh4xE99EQ-217" source="fX1Ia65fQYnZh4xE99EQ-219">
          <mxGeometry width="50" height="50" relative="1" as="geometry">
            <mxPoint x="1318" y="602" as="sourcePoint" />
            <mxPoint x="1318" y="572" as="targetPoint" />
          </mxGeometry>
        </mxCell>
        <mxCell id="0BvVbnJKyEt2qMHATExJ-141" style="edgeStyle=orthogonalEdgeStyle;shape=connector;rounded=0;orthogonalLoop=1;jettySize=auto;html=1;exitX=0.5;exitY=1;exitDx=0;exitDy=0;entryX=0.5;entryY=0;entryDx=0;entryDy=0;shadow=0;labelBackgroundColor=none;strokeColor=default;strokeWidth=1;fontFamily=Helvetica;fontSize=11;fontColor=default;endArrow=block;endFill=0;endSize=8;" edge="1" parent="WIyWlLk6GJQsqaUBKTNV-1" source="fX1Ia65fQYnZh4xE99EQ-222" target="fX1Ia65fQYnZh4xE99EQ-226">
          <mxGeometry relative="1" as="geometry" />
        </mxCell>
        <mxCell id="fX1Ia65fQYnZh4xE99EQ-222" value="sends all the segments based on QUBIC utill gets &quot;Download completed&quot;" style="rounded=1;whiteSpace=wrap;html=1;fontSize=12;glass=0;strokeWidth=1;shadow=0;" parent="WIyWlLk6GJQsqaUBKTNV-1" vertex="1">
          <mxGeometry x="1153" y="668" width="140" height="89" as="geometry" />
        </mxCell>
        <mxCell id="0BvVbnJKyEt2qMHATExJ-143" style="edgeStyle=orthogonalEdgeStyle;shape=connector;rounded=0;orthogonalLoop=1;jettySize=auto;html=1;exitX=0.5;exitY=1;exitDx=0;exitDy=0;entryX=0.5;entryY=0;entryDx=0;entryDy=0;shadow=0;labelBackgroundColor=none;strokeColor=default;strokeWidth=1;fontFamily=Helvetica;fontSize=11;fontColor=default;endArrow=block;endFill=0;endSize=8;" edge="1" parent="WIyWlLk6GJQsqaUBKTNV-1" source="fX1Ia65fQYnZh4xE99EQ-226" target="fX1Ia65fQYnZh4xE99EQ-227">
          <mxGeometry relative="1" as="geometry" />
        </mxCell>
        <mxCell id="fX1Ia65fQYnZh4xE99EQ-226" value="send &quot;close&quot; to the client" style="rounded=1;whiteSpace=wrap;html=1;fontSize=12;glass=0;strokeWidth=1;shadow=0;" parent="WIyWlLk6GJQsqaUBKTNV-1" vertex="1">
          <mxGeometry x="1170.5" y="784" width="105" height="49" as="geometry" />
        </mxCell>
        <mxCell id="fX1Ia65fQYnZh4xE99EQ-227" value="removes the Handler" style="rounded=1;whiteSpace=wrap;html=1;fontSize=12;glass=0;strokeWidth=1;shadow=0;" parent="WIyWlLk6GJQsqaUBKTNV-1" vertex="1">
          <mxGeometry x="1170.5" y="860" width="105" height="49" as="geometry" />
        </mxCell>
        <mxCell id="0BvVbnJKyEt2qMHATExJ-8" value="No" style="edgeStyle=orthogonalEdgeStyle;rounded=0;html=1;jettySize=auto;orthogonalLoop=1;fontSize=11;endArrow=block;endFill=0;endSize=8;strokeWidth=1;shadow=0;labelBackgroundColor=none;exitX=0.75;exitY=1;exitDx=0;exitDy=0;" edge="1" parent="WIyWlLk6GJQsqaUBKTNV-1">
          <mxGeometry x="0.1692" y="17" relative="1" as="geometry">
            <mxPoint as="offset" />
            <mxPoint x="503.75" y="-210" as="sourcePoint" />
            <mxPoint x="503.5" y="-104" as="targetPoint" />
            <Array as="points">
              <mxPoint x="503.5" y="-189" />
              <mxPoint x="503.5" y="-189" />
            </Array>
          </mxGeometry>
        </mxCell>
        <mxCell id="0BvVbnJKyEt2qMHATExJ-12" value="No" style="edgeStyle=orthogonalEdgeStyle;rounded=0;html=1;jettySize=auto;orthogonalLoop=1;fontSize=11;endArrow=block;endFill=0;endSize=8;strokeWidth=1;shadow=0;labelBackgroundColor=none;exitX=0.75;exitY=1;exitDx=0;exitDy=0;" edge="1" parent="WIyWlLk6GJQsqaUBKTNV-1">
          <mxGeometry x="0.1692" y="17" relative="1" as="geometry">
            <mxPoint as="offset" />
            <mxPoint x="685.25" y="-220" as="sourcePoint" />
            <mxPoint x="685" y="-30" as="targetPoint" />
            <Array as="points">
              <mxPoint x="685" y="-199" />
              <mxPoint x="685" y="-199" />
            </Array>
          </mxGeometry>
        </mxCell>
        <mxCell id="0BvVbnJKyEt2qMHATExJ-15" value="Yes" style="edgeStyle=orthogonalEdgeStyle;rounded=0;html=1;jettySize=auto;orthogonalLoop=1;fontSize=11;endArrow=block;endFill=0;endSize=8;strokeWidth=1;shadow=0;labelBackgroundColor=none;exitX=0.5;exitY=1;exitDx=0;exitDy=0;entryX=0.5;entryY=0;entryDx=0;entryDy=0;" edge="1" parent="WIyWlLk6GJQsqaUBKTNV-1" source="fX1Ia65fQYnZh4xE99EQ-25" target="fX1Ia65fQYnZh4xE99EQ-26">
          <mxGeometry x="-0.6947" y="17" relative="1" as="geometry">
            <mxPoint as="offset" />
            <mxPoint x="418.5" y="301" as="sourcePoint" />
            <mxPoint x="418.75" y="481" as="targetPoint" />
            <Array as="points" />
          </mxGeometry>
        </mxCell>
        <mxCell id="0BvVbnJKyEt2qMHATExJ-21" value="" style="rounded=0;html=1;jettySize=auto;orthogonalLoop=1;fontSize=11;endArrow=block;endFill=0;endSize=8;strokeWidth=1;shadow=0;labelBackgroundColor=none;edgeStyle=orthogonalEdgeStyle;exitX=0.5;exitY=1;exitDx=0;exitDy=0;" edge="1" parent="WIyWlLk6GJQsqaUBKTNV-1">
          <mxGeometry relative="1" as="geometry">
            <mxPoint x="348" y="-230" as="sourcePoint" />
            <mxPoint x="348" y="-40" as="targetPoint" />
          </mxGeometry>
        </mxCell>
        <mxCell id="0BvVbnJKyEt2qMHATExJ-22" value="" style="rounded=0;html=1;jettySize=auto;orthogonalLoop=1;fontSize=11;endArrow=block;endFill=0;endSize=8;strokeWidth=1;shadow=0;labelBackgroundColor=none;edgeStyle=orthogonalEdgeStyle;exitX=0.5;exitY=1;exitDx=0;exitDy=0;" edge="1" parent="WIyWlLk6GJQsqaUBKTNV-1">
          <mxGeometry relative="1" as="geometry">
            <mxPoint x="198" y="-230" as="sourcePoint" />
            <mxPoint x="198" y="-40" as="targetPoint" />
          </mxGeometry>
        </mxCell>
        <mxCell id="fX1Ia65fQYnZh4xE99EQ-23" value="set private srtorage path" style="rounded=1;whiteSpace=wrap;html=1;fontSize=12;glass=0;strokeWidth=1;shadow=0;" parent="WIyWlLk6GJQsqaUBKTNV-1" vertex="1">
          <mxGeometry x="236" y="351" width="90" height="30" as="geometry" />
        </mxCell>
        <mxCell id="0BvVbnJKyEt2qMHATExJ-25" value="" style="rounded=0;html=1;jettySize=auto;orthogonalLoop=1;fontSize=11;endArrow=block;endFill=0;endSize=8;strokeWidth=1;shadow=0;labelBackgroundColor=none;edgeStyle=orthogonalEdgeStyle;exitX=0.5;exitY=1;exitDx=0;exitDy=0;entryX=0.5;entryY=0;entryDx=0;entryDy=0;" edge="1" parent="WIyWlLk6GJQsqaUBKTNV-1" source="fX1Ia65fQYnZh4xE99EQ-15" target="fX1Ia65fQYnZh4xE99EQ-23">
          <mxGeometry relative="1" as="geometry">
            <mxPoint x="196" y="316" as="sourcePoint" />
            <mxPoint x="376" y="311" as="targetPoint" />
            <Array as="points">
              <mxPoint x="281" y="351" />
            </Array>
          </mxGeometry>
        </mxCell>
        <mxCell id="0BvVbnJKyEt2qMHATExJ-27" value="Yes" style="edgeStyle=orthogonalEdgeStyle;rounded=0;html=1;jettySize=auto;orthogonalLoop=1;fontSize=11;endArrow=block;endFill=0;endSize=8;strokeWidth=1;shadow=0;labelBackgroundColor=none;exitX=1;exitY=0.5;exitDx=0;exitDy=0;entryX=0.5;entryY=0;entryDx=0;entryDy=0;" edge="1" parent="WIyWlLk6GJQsqaUBKTNV-1" source="fX1Ia65fQYnZh4xE99EQ-18" target="fX1Ia65fQYnZh4xE99EQ-23">
          <mxGeometry x="-0.6939" y="10" relative="1" as="geometry">
            <mxPoint as="offset" />
            <mxPoint x="206.25" y="301" as="sourcePoint" />
            <mxPoint x="206" y="461" as="targetPoint" />
            <Array as="points">
              <mxPoint x="196" y="321" />
              <mxPoint x="281" y="321" />
            </Array>
          </mxGeometry>
        </mxCell>
        <mxCell id="0BvVbnJKyEt2qMHATExJ-30" value="" style="rounded=0;html=1;jettySize=auto;orthogonalLoop=1;fontSize=11;endArrow=block;endFill=0;endSize=8;strokeWidth=1;shadow=0;labelBackgroundColor=none;edgeStyle=orthogonalEdgeStyle;exitX=0.5;exitY=1;exitDx=0;exitDy=0;entryX=0.5;entryY=0;entryDx=0;entryDy=0;" edge="1" parent="WIyWlLk6GJQsqaUBKTNV-1" source="fX1Ia65fQYnZh4xE99EQ-26" target="fX1Ia65fQYnZh4xE99EQ-29">
          <mxGeometry relative="1" as="geometry">
            <mxPoint x="451.5" y="316" as="sourcePoint" />
            <mxPoint x="451.5" y="506" as="targetPoint" />
          </mxGeometry>
        </mxCell>
        <mxCell id="0BvVbnJKyEt2qMHATExJ-31" value="" style="rounded=0;html=1;jettySize=auto;orthogonalLoop=1;fontSize=11;endArrow=block;endFill=0;endSize=8;strokeWidth=1;shadow=0;labelBackgroundColor=none;edgeStyle=orthogonalEdgeStyle;exitX=0.5;exitY=1;exitDx=0;exitDy=0;entryX=0.5;entryY=0;entryDx=0;entryDy=0;" edge="1" parent="WIyWlLk6GJQsqaUBKTNV-1" source="fX1Ia65fQYnZh4xE99EQ-26" target="fX1Ia65fQYnZh4xE99EQ-57">
          <mxGeometry relative="1" as="geometry">
            <mxPoint x="453" y="91" as="sourcePoint" />
            <mxPoint x="453" y="281" as="targetPoint" />
          </mxGeometry>
        </mxCell>
        <mxCell id="0BvVbnJKyEt2qMHATExJ-32" value="" style="rounded=0;html=1;jettySize=auto;orthogonalLoop=1;fontSize=11;endArrow=block;endFill=0;endSize=8;strokeWidth=1;shadow=0;labelBackgroundColor=none;edgeStyle=orthogonalEdgeStyle;exitX=0.5;exitY=1;exitDx=0;exitDy=0;entryX=0.5;entryY=0;entryDx=0;entryDy=0;" edge="1" parent="WIyWlLk6GJQsqaUBKTNV-1" source="fX1Ia65fQYnZh4xE99EQ-26" target="fX1Ia65fQYnZh4xE99EQ-90">
          <mxGeometry relative="1" as="geometry">
            <mxPoint x="453" y="91" as="sourcePoint" />
            <mxPoint x="453" y="281" as="targetPoint" />
          </mxGeometry>
        </mxCell>
        <mxCell id="0BvVbnJKyEt2qMHATExJ-34" value="" style="rounded=0;html=1;jettySize=auto;orthogonalLoop=1;fontSize=11;endArrow=none;endFill=0;endSize=8;strokeWidth=1;shadow=0;labelBackgroundColor=none;edgeStyle=orthogonalEdgeStyle;exitX=0.5;exitY=1;exitDx=0;exitDy=0;entryX=0.5;entryY=0;entryDx=0;entryDy=0;" edge="1" parent="WIyWlLk6GJQsqaUBKTNV-1" source="fX1Ia65fQYnZh4xE99EQ-26" target="fX1Ia65fQYnZh4xE99EQ-90">
          <mxGeometry relative="1" as="geometry">
            <mxPoint x="312" y="451" as="sourcePoint" />
            <mxPoint x="741" y="606" as="targetPoint" />
          </mxGeometry>
        </mxCell>
        <mxCell id="0BvVbnJKyEt2qMHATExJ-105" style="edgeStyle=orthogonalEdgeStyle;shape=connector;rounded=0;orthogonalLoop=1;jettySize=auto;html=1;exitX=0.5;exitY=1;exitDx=0;exitDy=0;entryX=0.5;entryY=0;entryDx=0;entryDy=0;shadow=0;labelBackgroundColor=none;strokeColor=default;strokeWidth=1;fontFamily=Helvetica;fontSize=11;fontColor=default;endArrow=block;endFill=0;endSize=8;" edge="1" parent="WIyWlLk6GJQsqaUBKTNV-1" source="fX1Ia65fQYnZh4xE99EQ-90" target="fX1Ia65fQYnZh4xE99EQ-91">
          <mxGeometry relative="1" as="geometry" />
        </mxCell>
        <mxCell id="fX1Ia65fQYnZh4xE99EQ-90" value="list" style="rounded=1;whiteSpace=wrap;html=1;fontSize=12;glass=0;strokeWidth=1;shadow=0;" parent="WIyWlLk6GJQsqaUBKTNV-1" vertex="1">
          <mxGeometry x="512.3" y="511" width="90" height="30" as="geometry" />
        </mxCell>
        <mxCell id="0BvVbnJKyEt2qMHATExJ-36" value="" style="rounded=0;html=1;jettySize=auto;orthogonalLoop=1;fontSize=11;endArrow=block;endFill=0;endSize=8;strokeWidth=1;shadow=0;labelBackgroundColor=none;edgeStyle=orthogonalEdgeStyle;exitX=0.5;exitY=1;exitDx=0;exitDy=0;entryX=0.5;entryY=0;entryDx=0;entryDy=0;" edge="1" parent="WIyWlLk6GJQsqaUBKTNV-1" source="fX1Ia65fQYnZh4xE99EQ-26" target="fX1Ia65fQYnZh4xE99EQ-111">
          <mxGeometry relative="1" as="geometry">
            <mxPoint x="453" y="91" as="sourcePoint" />
            <mxPoint x="453" y="281" as="targetPoint" />
          </mxGeometry>
        </mxCell>
        <mxCell id="0BvVbnJKyEt2qMHATExJ-37" value="" style="rounded=0;html=1;jettySize=auto;orthogonalLoop=1;fontSize=11;endArrow=block;endFill=0;endSize=8;strokeWidth=1;shadow=0;labelBackgroundColor=none;edgeStyle=orthogonalEdgeStyle;exitX=0.5;exitY=1;exitDx=0;exitDy=0;entryX=0.5;entryY=0;entryDx=0;entryDy=0;" edge="1" parent="WIyWlLk6GJQsqaUBKTNV-1" source="fX1Ia65fQYnZh4xE99EQ-29" target="fX1Ia65fQYnZh4xE99EQ-31">
          <mxGeometry relative="1" as="geometry">
            <mxPoint x="453" y="91" as="sourcePoint" />
            <mxPoint x="453" y="281" as="targetPoint" />
          </mxGeometry>
        </mxCell>
        <mxCell id="0BvVbnJKyEt2qMHATExJ-42" value="No" style="edgeStyle=orthogonalEdgeStyle;rounded=0;html=1;jettySize=auto;orthogonalLoop=1;fontSize=11;endArrow=block;endFill=0;endSize=8;strokeWidth=1;shadow=0;labelBackgroundColor=none;exitX=0.75;exitY=1;exitDx=0;exitDy=0;" edge="1" parent="WIyWlLk6GJQsqaUBKTNV-1">
          <mxGeometry x="0.1692" y="17" relative="1" as="geometry">
            <mxPoint as="offset" />
            <mxPoint x="1110.75" y="-240" as="sourcePoint" />
            <mxPoint x="1110.5" y="-50" as="targetPoint" />
            <Array as="points">
              <mxPoint x="1110.5" y="-219" />
              <mxPoint x="1110.5" y="-219" />
            </Array>
          </mxGeometry>
        </mxCell>
        <mxCell id="0BvVbnJKyEt2qMHATExJ-51" value="Yes" style="edgeStyle=orthogonalEdgeStyle;rounded=0;html=1;jettySize=auto;orthogonalLoop=1;fontSize=11;endArrow=block;endFill=0;endSize=8;strokeWidth=1;shadow=0;labelBackgroundColor=none;exitX=0.75;exitY=1;exitDx=0;exitDy=0;" edge="1" parent="WIyWlLk6GJQsqaUBKTNV-1">
          <mxGeometry x="-0.5103" y="14" relative="1" as="geometry">
            <mxPoint as="offset" />
            <mxPoint x="873.25" y="-210" as="sourcePoint" />
            <mxPoint x="873" y="-104" as="targetPoint" />
            <Array as="points">
              <mxPoint x="873" y="-189" />
              <mxPoint x="873" y="-189" />
            </Array>
          </mxGeometry>
        </mxCell>
        <mxCell id="0BvVbnJKyEt2qMHATExJ-52" value="Yes" style="edgeStyle=orthogonalEdgeStyle;rounded=0;html=1;jettySize=auto;orthogonalLoop=1;fontSize=11;endArrow=block;endFill=0;endSize=8;strokeWidth=1;shadow=0;labelBackgroundColor=none;exitX=0.75;exitY=1;exitDx=0;exitDy=0;" edge="1" parent="WIyWlLk6GJQsqaUBKTNV-1">
          <mxGeometry x="-0.5103" y="14" relative="1" as="geometry">
            <mxPoint as="offset" />
            <mxPoint x="1018.25" y="-220" as="sourcePoint" />
            <mxPoint x="1018" y="-114" as="targetPoint" />
            <Array as="points">
              <mxPoint x="1018" y="-199" />
              <mxPoint x="1018" y="-199" />
            </Array>
          </mxGeometry>
        </mxCell>
        <mxCell id="0BvVbnJKyEt2qMHATExJ-54" value="Yes" style="edgeStyle=orthogonalEdgeStyle;rounded=0;html=1;jettySize=auto;orthogonalLoop=1;fontSize=11;endArrow=block;endFill=0;endSize=8;strokeWidth=1;shadow=0;labelBackgroundColor=none;exitX=0.75;exitY=1;exitDx=0;exitDy=0;" edge="1" parent="WIyWlLk6GJQsqaUBKTNV-1">
          <mxGeometry x="-0.5103" y="14" relative="1" as="geometry">
            <mxPoint as="offset" />
            <mxPoint x="1202.75" y="-236" as="sourcePoint" />
            <mxPoint x="1202.5" y="-130" as="targetPoint" />
            <Array as="points">
              <mxPoint x="1202.5" y="-215" />
              <mxPoint x="1202.5" y="-215" />
            </Array>
          </mxGeometry>
        </mxCell>
        <mxCell id="0BvVbnJKyEt2qMHATExJ-65" value="No" style="edgeStyle=orthogonalEdgeStyle;shape=connector;rounded=0;orthogonalLoop=1;jettySize=auto;html=1;entryX=0.5;entryY=0;entryDx=0;entryDy=0;shadow=0;labelBackgroundColor=none;strokeColor=default;strokeWidth=1;fontFamily=Helvetica;fontSize=11;fontColor=default;endArrow=block;endFill=0;endSize=8;exitX=0.5;exitY=1;exitDx=0;exitDy=0;" edge="1" parent="WIyWlLk6GJQsqaUBKTNV-1" source="fX1Ia65fQYnZh4xE99EQ-43" target="fX1Ia65fQYnZh4xE99EQ-46">
          <mxGeometry x="0.1111" y="-15" relative="1" as="geometry">
            <mxPoint x="-65" y="851" as="sourcePoint" />
            <mxPoint x="-120" y="881" as="targetPoint" />
            <mxPoint as="offset" />
          </mxGeometry>
        </mxCell>
        <mxCell id="0BvVbnJKyEt2qMHATExJ-73" value="No" style="rounded=0;html=1;jettySize=auto;orthogonalLoop=1;fontSize=11;endArrow=block;endFill=0;endSize=8;strokeWidth=1;shadow=0;labelBackgroundColor=none;edgeStyle=orthogonalEdgeStyle;exitX=0;exitY=0.5;exitDx=0;exitDy=0;entryX=0.5;entryY=0;entryDx=0;entryDy=0;" edge="1" parent="WIyWlLk6GJQsqaUBKTNV-1" source="fX1Ia65fQYnZh4xE99EQ-58" target="fX1Ia65fQYnZh4xE99EQ-60">
          <mxGeometry x="-0.6552" y="-15" relative="1" as="geometry">
            <mxPoint as="offset" />
            <mxPoint x="201" y="601" as="sourcePoint" />
            <mxPoint x="190" y="674" as="targetPoint" />
            <Array as="points">
              <mxPoint x="183" y="576" />
            </Array>
          </mxGeometry>
        </mxCell>
        <mxCell id="0BvVbnJKyEt2qMHATExJ-90" value="Yes" style="edgeStyle=orthogonalEdgeStyle;rounded=0;html=1;jettySize=auto;orthogonalLoop=1;fontSize=11;endArrow=block;endFill=0;endSize=8;strokeWidth=1;shadow=0;labelBackgroundColor=none;exitX=0.5;exitY=1;exitDx=0;exitDy=0;entryX=0.5;entryY=0;entryDx=0;entryDy=0;" edge="1" parent="WIyWlLk6GJQsqaUBKTNV-1" source="fX1Ia65fQYnZh4xE99EQ-91" target="fX1Ia65fQYnZh4xE99EQ-95">
          <mxGeometry x="0.0714" y="17" relative="1" as="geometry">
            <mxPoint as="offset" />
            <mxPoint x="704.55" y="165" as="sourcePoint" />
            <mxPoint x="704.3" y="271" as="targetPoint" />
            <Array as="points">
              <mxPoint x="557.3" y="631" />
              <mxPoint x="557.3" y="631" />
            </Array>
          </mxGeometry>
        </mxCell>
        <mxCell id="0BvVbnJKyEt2qMHATExJ-99" style="edgeStyle=orthogonalEdgeStyle;shape=connector;rounded=0;orthogonalLoop=1;jettySize=auto;html=1;exitX=0.5;exitY=1;exitDx=0;exitDy=0;shadow=0;labelBackgroundColor=none;strokeColor=default;strokeWidth=1;fontFamily=Helvetica;fontSize=11;fontColor=default;endArrow=block;endFill=0;endSize=8;" edge="1" parent="WIyWlLk6GJQsqaUBKTNV-1" source="fX1Ia65fQYnZh4xE99EQ-98" target="fX1Ia65fQYnZh4xE99EQ-98">
          <mxGeometry relative="1" as="geometry" />
        </mxCell>
        <mxCell id="0BvVbnJKyEt2qMHATExJ-112" value="No" style="edgeStyle=orthogonalEdgeStyle;rounded=0;html=1;jettySize=auto;orthogonalLoop=1;fontSize=11;endArrow=block;endFill=0;endSize=8;strokeWidth=1;shadow=0;labelBackgroundColor=none;exitX=0;exitY=0.5;exitDx=0;exitDy=0;entryX=0.5;entryY=0;entryDx=0;entryDy=0;" edge="1" parent="WIyWlLk6GJQsqaUBKTNV-1" target="0BvVbnJKyEt2qMHATExJ-113" source="fX1Ia65fQYnZh4xE99EQ-112">
          <mxGeometry x="-0.5714" y="-15" relative="1" as="geometry">
            <mxPoint as="offset" />
            <mxPoint x="791.7" y="561" as="sourcePoint" />
            <mxPoint x="732.7" y="586" as="targetPoint" />
            <Array as="points">
              <mxPoint x="775" y="576" />
            </Array>
          </mxGeometry>
        </mxCell>
        <mxCell id="0BvVbnJKyEt2qMHATExJ-113" value="sends ERROR&lt;br&gt;response" style="rounded=1;whiteSpace=wrap;html=1;fontSize=12;glass=0;strokeWidth=1;shadow=0;" vertex="1" parent="WIyWlLk6GJQsqaUBKTNV-1">
          <mxGeometry x="730" y="606" width="90" height="30" as="geometry" />
        </mxCell>
        <mxCell id="0BvVbnJKyEt2qMHATExJ-126" value="No" style="edgeStyle=orthogonalEdgeStyle;rounded=0;html=1;jettySize=auto;orthogonalLoop=1;fontSize=11;endArrow=block;endFill=0;endSize=8;strokeWidth=1;shadow=0;labelBackgroundColor=none;exitX=0;exitY=0.5;exitDx=0;exitDy=0;entryX=0.5;entryY=0;entryDx=0;entryDy=0;" edge="1" parent="WIyWlLk6GJQsqaUBKTNV-1" source="fX1Ia65fQYnZh4xE99EQ-155" target="fX1Ia65fQYnZh4xE99EQ-154">
          <mxGeometry x="-0.131" y="-10" relative="1" as="geometry">
            <mxPoint x="10" y="-10" as="offset" />
            <mxPoint x="979.5" y="370" as="sourcePoint" />
            <mxPoint x="948.5" y="411" as="targetPoint" />
          </mxGeometry>
        </mxCell>
      </root>
    </mxGraphModel>
  </diagram>
</mxfile>
